<?xml version="1.0" encoding="utf-8"?>
<!-- Generator: Adobe Illustrator 17.0.0, SVG Export Plug-In . SVG Version: 6.00 Build 0)  -->
<!DOCTYPE svg PUBLIC "-//W3C//DTD SVG 1.1//EN" "http://www.w3.org/Graphics/SVG/1.1/DTD/svg11.dtd">
<svg version="1.1" id="Layer_1" xmlns="http://www.w3.org/2000/svg" xmlns:xlink="http://www.w3.org/1999/xlink" x="0px" y="0px"
	 width="386.981px" height="298.485px" viewBox="0 0 386.981 298.485" enable-background="new 0 0 386.981 298.485"
	 xml:space="preserve">
<g>
	<path fill="#FFFFFF" d="M1016.776,213.297c5.514,12.141,10.874,23.943,16.234,35.745c2.476,5.453,4.99,10.889,7.417,16.364
		c2.668,6.021,0.23,10.003-6.24,9.931c-16.135-0.182-11.347,2.093-21.595-9.913c-4.38-5.131-8.287-10.721-13.046-15.463
		c-11.599-11.558-17.12-26.501-23.421-40.977c-2.527-5.805-5.846-10.623-11.012-14.128c-0.959-0.651-2.502-0.904-3.67-0.709
		c-9.356,1.554-18.661,3.424-28.031,4.882c-16.469,2.563-31.448-1.237-44.964-10.996c-3.82-2.758-7.817-5.27-12.123-8.156
		c-0.568,1.725-0.918,2.755-1.247,3.791c-2.775,8.737-7.443,16.306-13.944,22.768c-6.824,6.783-13.54,13.677-20.459,20.361
		c-1.909,1.844-2.604,3.625-2.205,6.232c1.7,11.106,3.204,22.241,4.867,33.353c0.937,6.262-1.239,8.946-7.537,8.981
		c-2.874,0.016-5.748,0.022-8.622-0.002c-4.653-0.038-6.245-1.167-7.589-5.592c-4.421-14.561-8.798-29.135-13.201-43.701
		c-0.244-0.808-0.566-1.593-1.095-3.065c-3.081,1.917-6.103,3.38-8.635,5.444c-10.554,8.604-20.953,17.399-31.426,26.102
		c-4.711,3.915-6.999,3.817-11.243-0.4c-3.28-3.259-6.581-6.497-9.804-9.812c-3.243-3.335-3.406-6.068-0.434-9.554
		c11.59-13.598,23.204-27.175,34.906-40.675c1.176-1.357,2.915-2.33,4.553-3.165c8.874-4.522,17.799-8.944,26.294-13.194
		c-0.811-6.832-1.572-13.233-2.42-20.379c-1.594,2.201-3.515,4.004-4.408,6.221c-6.417,15.93-18.547,23.392-35.235,24.726
		c-7.833,0.626-15.619,1.858-23.417,2.881c-3.394,0.445-6.309-0.081-7.797-3.565c-1.428-3.344,0.186-5.694,2.708-7.781
		c8.76-7.248,17.456-14.572,26.212-21.824c4.737-3.924,8.049-8.792,10.216-14.53c7.447-19.721,22.518-29.958,43.638-30.221
		c4.377-0.054,8.983-0.873,13.063-2.437c18.497-7.092,36.601-7.124,55.044,0.592c5.798,2.426,12.638,2.419,19.032,3.302
		c1.054,0.146,2.268-0.862,3.408-1.337c-0.069-0.388-0.138-0.776-0.206-1.164c-6.212-2.841-12.427-5.675-18.635-8.525
		c-15.585-7.155-18.833-23.194-7.278-35.906c9.842-10.828,22.347-15.986,36.685-17.326c4.722-0.441,9.413-1.254,14.14-1.601
		c3.568-0.262,7.17-0.052,11.239-0.052c0.091-0.366,0.398-1.504,0.659-2.653c2.19-9.646,10.016-16.357,19.537-16.745
		c9.781-0.398,18.235,5.745,21.233,15.176c0.398,1.251,1.934,2.106,2.81,3.247c1.36,1.769,3.592,3.61,3.623,5.45
		c0.03,1.837-1.802,4.411-3.534,5.38c-1.865,1.043-2.639,2.077-3.195,3.984c-1.525,5.227-4.944,9.118-9.528,12.442
		c9.51-2.979,18.232-3.458,24.299,6.577c9.698-3.643,19.33-7.262,29.278-11c-0.262-1.2-0.705-2.726-0.913-4.283
		c-0.638-4.76,3.797-8.456,8.141-6.435c8.368,3.894,16.587,8.116,24.782,12.369c1.223,0.635,2.145,2.066,2.925,3.306
		c9.435,15.01,18.828,30.047,28.207,45.093c2.756,4.421,2.495,6.458-1.225,10.209c-4.224,4.259-8.449,8.516-12.725,12.722
		c-3.606,3.547-6.264,3.658-10.128,0.403c-11.176-9.415-22.322-18.866-33.726-28.511c-7.92,7.92-15.785,15.73-23.541,23.647
		c-0.648,0.661-0.766,2.046-0.774,3.097c-0.061,7.997,0.039,15.996-0.082,23.991c-0.032,2.118,0.657,3.042,2.679,3.69
		c9.146,2.93,18.264,5.957,27.322,9.148c2.039,0.718,4.104,1.926,5.633,3.439c15.189,15.03,30.283,30.155,45.369,45.289
		c5.08,5.096,3.752,9.902-3.219,11.713c-6.882,1.787-13.83,3.328-20.673,5.251c-3.273,0.92-5.76,0.19-8.26-1.922
		c-9.544-8.062-19.384-15.788-28.671-24.133C1027.41,214.821,1022.485,213.986,1016.776,213.297z M957.476,148.046
		c1.577,6.238,3,12.421,4.711,18.524c4.595,16.393,15.184,26.646,31.9,30.128c10.744,2.238,21.575,4.076,32.395,5.932
		c3.794,0.651,7.035,1.972,10.017,4.531c9.381,8.053,18.935,15.907,28.483,23.762c0.964,0.793,2.438,1.648,3.523,1.482
		c2.982-0.455,5.882-1.438,9.098-2.287c-0.598-0.742-0.87-1.152-1.21-1.493c-12.186-12.195-24.354-24.406-36.608-36.532
		c-1.089-1.078-2.658-1.823-4.138-2.33c-9.555-3.275-19.145-6.446-28.727-9.64c-6.617-2.206-7.131-2.971-7.271-9.825
		c-0.284-13.926-6.333-24.641-18.089-32.13c-0.799-0.509-1.55-1.091-2.429-1.713c1.79-3.55,3.46-6.86,5.506-10.917
		c5.186,3.935,10.055,7.631,14.732,11.18c0.675-1.15,1.201-2.645,2.208-3.665c9.833-9.953,19.718-19.856,29.658-29.702
		c2.586-2.561,5.517-2.629,8.451-0.408c0.761,0.576,1.539,1.13,1.839,1.35c4.788-7.111,9.474-14.07,14.582-21.656
		c-3.102-1.661-6.892-3.691-11.39-6.099c1.008,4.311,1.791,7.66,2.659,11.371c-3.915,0.986-7.591,1.911-11.447,2.882
		c-0.742-2.643-1.402-4.994-2.151-7.662c-1.845,0.372-3.472,0.486-4.938,1.032c-8.412,3.137-16.794,6.357-25.163,9.608
		c-0.998,0.387-2.228,0.908-2.722,1.741c-3.271,5.505-8.419,7.502-14.397,8.142c-12.145,1.301-23.652,4.823-34.672,10.037
		c0,11.774,0,23.572,0,35.525C953.809,148.812,955.495,148.46,957.476,148.046z M829.613,135.583
		c-13.655,18.174-13.507,34.11,0.306,51.541c2.518,3.178,2.436,5.94-0.522,8.996c-4.083,4.218-8.2,8.412-12.471,12.437
		c-1.845,1.739-2.364,3.275-1.577,5.807c4.551,14.647,8.897,29.358,13.327,44.042c0.297,0.984,0.719,1.931,1.083,2.894
		c-0.789-10.407-2.127-20.658-3.761-30.862c-0.571-3.567,0.222-6.217,2.805-8.743c8.216-8.036,16.354-16.155,24.384-24.377
		c12.868-13.175,15.754-31.025,7.858-47.709c-1.486-3.139-3.044-6.244-4.669-9.57c3.63-1.797,7.043-3.488,10.671-5.284
		c2.161,4.298,4.138,8.229,6.456,12.84c0-9.909,0-18.974,0-28.094c-10.813-3.153-21.411-2.773-31.81,0.895
		c-8.745,3.084-17.47,5.017-26.916,5.292c-13.098,0.381-22.619,7.635-27.323,19.971c-3.676,9.64-9.167,17.636-17.347,23.871
		c-2.599,1.981-5.012,4.205-8.061,6.785c15.214-0.153,24.042-4.311,29.52-17.257c3.438-8.127,9.779-13.698,17.867-17.328
		c1.441-0.647,2.697-2.028,3.667-3.344c2.705-3.672,5.214-7.488,7.981-11.509C824.259,130.12,826.866,132.78,829.613,135.583z
		 M948.06,161.377c-23.521,0-47.167,0-71.19,0c1.305,2.536-1.13,5.657,2.666,7.557c5.428,2.717,10.696,5.847,15.71,9.272
		c6.166,4.213,12.659,7.373,20.02,8.79c13.818,2.661,26.762-2.255,39.859-3.96C952.692,175.577,950.392,168.525,948.06,161.377z
		 M931.511,66.796c10.764,8.958,21.183,17.69,31.706,26.294c1.109,0.907,2.91,1.642,4.26,1.465
		c6.668-0.876,13.298-2.058,19.93-3.197c2.026-0.348,3.712-1.349,3.177-3.742c-0.517-2.313-2.309-2.649-4.404-2.127
		c-4.472,1.114-9.007,2.008-13.415,3.331c-3.774,1.133-6.444,0.141-8.81-2.909c-5.121-6.603-10.477-13.024-15.602-19.624
		c-3.361-4.329-7.516-6.359-13.02-5.523c-2.71,0.412-5.468,0.514-8.168,0.971c-6.251,1.056-12.502,2.138-18.694,3.484
		c-0.982,0.214-2.447,1.975-2.325,2.823c0.453,3.136,1.478,6.188,2.278,9.234c5.567,0,10.775,0,14.938,0
		C925.723,73.144,928.75,70.33,931.511,66.796z M815.402,188.234c-4.673,2.339-8.882,4.842-13.378,6.616
		c-10.39,4.098-18.473,10.81-25.265,19.637c-6.515,8.467-13.815,16.331-20.615,24.277c1.405,1.653,2.591,3.048,3.844,4.52
		c3.021-2.508,5.628-4.843,8.409-6.949c10.602-8.032,19.436-18.413,31.88-24.021c0.685-0.309,1.046-1.437,1.456-2.236
		c1.094-2.132,1.724-4.664,3.272-6.37c3.932-4.334,8.265-8.304,12.457-12.439C816.718,190.172,816.169,189.364,815.402,188.234z
		 M1024.988,261.555c-0.208-1.147-0.203-1.515-0.341-1.818c-7.152-15.8-14.299-31.604-21.528-47.369
		c-0.405-0.883-1.406-1.882-2.299-2.086c-3.734-0.852-7.532-1.422-12.627-2.331c4.59,8.895,7.903,17.475,13.049,24.759
		C1008.261,242.645,1016.677,251.592,1024.988,261.555z M935.811,111.049c1.621-4.768,0.656-7.026-3.716-8.927
		c-9.813-4.267-19.639-8.505-29.503-12.652c-2.767-1.163-4.442-2.946-5.065-5.925c-0.677-3.236-1.632-6.413-2.639-10.28
		c-1.647,1.771-2.982,3.013-4.09,4.433c-3.913,5.011-2.694,11.474,3.026,14.16C907.675,98.361,921.651,104.598,935.811,111.049z
		 M885.856,149.38c1.755,0,3.359,0.161,4.912-0.052c1.193-0.164,3.008-0.483,3.373-1.274c3.159-6.852,6.052-13.826,9.053-20.829
		c-5.993-1.02-11.601-1.974-17.338-2.95C885.856,132.471,885.856,140.745,885.856,149.38z M1061.412,121.301
		c3.519-3.58,6.79-6.822,9.932-10.186c0.531-0.569,0.97-1.937,0.658-2.469c-2.794-4.749-5.767-9.392-8.688-14.067
		c-0.477-0.078-0.953-0.157-1.43-0.236c-3.517,6.133-7.034,12.267-10.562,18.418
		C1054.953,115.835,1057.978,118.396,1061.412,121.301z M920.523,117.288c-4.665,10.914-9.103,21.296-13.59,31.792
		c4.085,0,7.706,0,11.538,0c-3.742-5.065-3.745-6.392-0.177-11.177c3.934-5.276,7.884-10.54,12.075-16.14
		C926.993,120.229,923.966,118.854,920.523,117.288z M939.322,149.252c0-6.37,0-12.539,0-19.405
		c-3.505,4.683-6.541,8.74-9.825,13.128C933.061,144.994,934.158,150.152,939.322,149.252z M958.357,47.101
		c5.702,0,11.016,0,16.598,0c-1.917-3.958-4.783-5.832-8.763-5.641C962.571,41.634,960.034,43.549,958.357,47.101z M974.958,59.603
		c-5.56,0-10.763,0-16.329,0c2.061,3.59,4.387,6.097,8.559,5.732C970.767,65.022,973.334,63.237,974.958,59.603z M1079.682,120.887
		c-3.101,2.92-5.917,5.573-8.886,8.369c1.237,1.018,2.341,1.927,2.932,2.413c2.901-2.584,5.544-4.938,8.217-7.319
		C1081.05,122.98,1080.313,121.854,1079.682,120.887z M952.218,100.423c0.092-0.34,0.185-0.681,0.277-1.021
		c-6.285-2.634-9.122-11.161-17.904-9.615c5.939,2.424,10.854,5.94,13.153,12.351C949.485,101.469,950.851,100.946,952.218,100.423z
		"/>
</g>
<g>
	<path fill="#FFFFFF" d="M745.207,596.624c0.138-1.082,0.367-2.161,0.399-3.246c0.255-8.837,0.584-17.674,0.641-26.512
		c0.02-3.049,0.931-5.424,3.339-7.152c6.419-4.606,12.505-9.87,19.436-13.522c8.707-4.589,9.372-11.998,9.209-20.111
		c-0.024-1.208-1.13-2.448-1.877-3.58c-6.009-9.113-10.356-18.892-11.313-29.869c-1.471-16.871,6.182-27.387,22.822-30.746
		c6.714-1.355,13.682-1.447,20.531-2.139c0.987-0.1,2.048-0.153,2.926-0.554c14.596-6.67,29.987-9.2,45.927-8.954
		c21.792,0.336,43.376-1.995,64.892-5.139c4.772-0.697,8.18-3.352,10.799-7.364c9.056-13.87,18.215-27.673,27.34-41.498
		c4.613-6.99,8.608-8.641,16.865-6.952c5.405,1.105,10.781,2.376,16.214,3.319c3.858,0.67,6.795,2.434,8.263,6.059
		c1.474,3.64,4.101,5.501,7.778,6.599c4.749,1.418,9.418,3.157,14.006,5.04c1.762,0.723,3.204,2.225,4.792,3.372
		c0,0.921,0,1.842,0,2.764c-1.211,1.81-2.358,3.668-3.645,5.422c-3.789,5.161-8.871,8.039-15.323,7.855
		c-7.27-0.208-14.536-0.654-21.791-1.169c-2.066-0.147-3.062,0.585-4.077,2.307c-5.865,9.949-10.782,20.289-13.884,31.457
		c-2.039,7.341-2.637,14.804-2.684,22.394c-0.053,8.635-1.722,17.017-5.345,24.914c-1.186,2.586-2.936,4.938-3.923,7.586
		c-1.363,3.659-2.938,7.444-3.22,11.265c-1.346,18.182-2.425,36.388-3.245,54.602c-0.159,3.529,1.211,7.141,2.01,10.685
		c0.127,0.565,0.889,1.14,1.492,1.418c3.844,1.776,6.04,5.042,7.779,8.649c1.43,2.966-0.316,6.036-3.611,6.133
		c-5.889,0.173-11.795,0.21-17.676-0.069c-1.341-0.063-3.151-1.348-3.82-2.575c-2.95-5.405-5.591-10.98-8.288-16.521
		c-1.975-4.058-1.199-8.264-0.545-12.464c2.494-16.04,1.314-31.927-1.917-47.691c-4.595-0.555-9.076-0.976-13.517-1.658
		c-7.876-1.21-15.317-3.884-22.528-7.195c-13.29-6.1-26.538-12.289-39.83-18.385c-8.575-3.933-17.454-1.546-21.658,5.951
		c-1.287,2.295-2.095,4.906-2.827,7.458c-3.871,13.479-12.185,23.807-22.992,32.284c-2.237,1.754-2.504,3.288-2.119,5.979
		c0.684,4.776,0.776,9.672,0.688,14.51c-0.05,2.743-2.241,4.373-4.533,4.184c-2.436-0.201-3.928-2.182-3.909-5.099
		c0.025-3.84,0.006-7.68,0.006-12.087c-6.813,3.813-13.351,6.595-18.839,10.76c-7.236,5.493-8.582,14.228-9.83,22.687
		c-0.027,0.182,0.003,0.374-0.04,0.55c-0.779,3.247-0.128,5.54,2.822,7.872c2.209,1.746,3.435,5.086,4.396,7.951
		c0.793,2.365-0.916,4.525-3.447,4.607c-6.435,0.206-12.887,0.238-19.316-0.04c-1.305-0.056-2.537-1.78-3.803-2.735
		C745.207,604.362,745.207,600.493,745.207,596.624z M756.488,602.53c-0.395-1.497-1.128-2.97-1.114-4.436
		c0.079-8.243,1.315-16.318,4.186-24.083c2.861-7.739,7.785-13.495,15.335-17.272c6.23-3.117,12.295-6.709,17.987-10.723
		c12.317-8.684,21.758-19.54,25.948-34.59c2.407-8.645,6.064-16.948,9.27-25.362c1.223-3.211,3.459-4.326,5.941-3.342
		c2.573,1.021,3.283,3.431,1.967,6.719c-0.575,1.435-1.171,2.862-1.839,4.493c0.584-0.027,0.954,0.03,1.275-0.069
		c7.217-2.222,13.909-0.649,20.556,2.439c14.925,6.933,29.868,13.836,44.952,20.412c7.274,3.171,15.081,4.559,23.273,4.785
		c-0.326-1.115-0.535-2.001-0.841-2.852c-2.24-6.224-4.514-12.435-6.748-18.661c-1.059-2.952-0.244-5.256,2.145-6.264
		c2.387-1.007,4.642,0.062,5.895,2.994c11.716,27.397,16.693,55.731,11.986,85.452c-0.312,1.972,0.001,4.287,0.764,6.136
		c1.645,3.986,3.748,7.784,5.712,11.635c0.875,1.716,0.928,1.689,3.172,1.023c-0.094-0.253-0.207-0.497-0.278-0.753
		c-1.321-4.762-3.886-9.565-3.736-14.281c0.607-19.042,2.057-38.057,3.182-57.083c0.336-5.677,1.474-11.115,4.514-16.028
		c5.729-9.262,8.213-19.401,8.169-30.227c-0.052-12.799,2.672-25.033,7.868-36.682c2.912-6.529,6.22-12.882,9.333-19.282
		c-1.626-1.4-3.466-2.784-5.059-4.411c-1.604-1.639-3.051-3.454-4.404-5.31c-1.591-2.183-1.248-4.667,0.656-6.157
		c1.834-1.436,4.117-1.238,5.94,0.695c1.45,1.538,2.515,3.518,4.152,4.78c1.887,1.454,4.14,3.112,6.365,3.326
		c8.517,0.819,17.083,1.172,25.637,1.534c3.294,0.139,6.281-0.833,8.316-3.85c-0.409-0.183-0.654-0.312-0.912-0.405
		c-4.407-1.599-8.791-3.269-13.239-4.743c-1.339-0.444-2.904-0.629-4.289-0.421c-2.475,0.372-4.722,0.315-6-2.123
		c-1.277-2.437-0.208-4.433,1.942-6.114c-0.548-0.696-0.935-1.718-1.547-1.877c-3.198-0.831-6.453-1.913-9.687-1.911
		c-1.379,0.001-2.754,2.427-4.138,3.744c-0.399,0.38-0.788,0.781-1.234,1.098c-1.689,1.198-3.431,1.291-5.11,0.021
		c-1.684-1.273-1.983-3.025-1.411-4.95c0.211-0.709,0.624-1.358,0.945-2.034c-0.261-0.209-0.522-0.419-0.782-0.628
		c-1.222,1.223-2.687,2.285-3.628,3.695c-9.192,13.782-18.386,27.564-27.387,41.47c-4.516,6.978-10.714,10.775-18.893,11.932
		c-23.187,3.281-46.444,5.253-69.891,5.084c-14.498-0.105-28.268,3.338-41.066,10.257c-12.348,6.676-20.374,16.531-21.649,30.914
		c-0.967,10.906-1.746,21.836-2.288,32.771c-0.4,8.074-3.588,14.317-10.491,18.6c-2.033,1.261-4.084,2.5-6.058,3.848
		c-4.329,2.955-8.608,5.982-12.92,8.961c-1.635,1.13-2.31,2.564-2.344,4.632c-0.141,8.655-0.486,17.306-0.72,25.959
		c-0.067,2.473-0.01,4.949-0.01,7.516C755.068,602.53,755.876,602.53,756.488,602.53z M794.832,469.719
		c-5.395,0.419-10.524,1.442-14.64,4.729c-2.268,1.811-4.607,4.305-5.473,6.961c-3.165,9.703,0.005,18.682,4.333,27.5
		C780.16,494.152,782.902,480.149,794.832,469.719z"/>
</g>
<g>
	<path fill="#FFFFFF" d="M811.681,46.129c-5.505-1.037-10.998-2.148-16.519-3.097c-23.99-4.122-47.989-8.196-71.985-12.288
		c-5.123-0.874-10.258-1.684-15.366-2.636c-10.777-2.008-14.738-5.377-18.721-15.922c-5.229,0.77-10.524,1.534-15.814,2.332
		c-6.254,0.943-12.495,1.971-18.755,2.864c-10.25,1.462-19.301-5.107-20.899-15.351c-3.325-21.316-6.523-42.652-9.742-63.984
		c-0.51-3.383,1.229-5.992,4.126-6.459c3.266-0.527,5.649,1.408,6.202,5.078c3.142,20.818,6.289,41.636,9.405,62.458
		c0.917,6.128,4.442,8.727,10.506,7.807c28.525-4.325,57.057-8.608,85.586-12.908c6.94-1.046,13.885-2.058,20.814-3.169
		c5.92-0.95,9.367-5.331,8.523-11.283c-2.079-14.669-4.351-29.31-6.558-43.961c-3.37-22.361-6.753-44.721-10.127-67.081
		c-3.387-22.446-6.769-44.893-10.156-67.339c-0.233-1.542-0.446-3.089-0.743-4.619c-0.847-4.366-4.505-7.069-8.931-6.417
		c-11.743,1.731-23.472,3.562-35.208,5.338c-20.131,3.047-40.264,6.081-60.395,9.123c-4.454,0.673-8.907,1.36-13.362,2.027
		c-5.599,0.839-8.289,4.236-7.505,9.747c1.038,7.291,2.207,14.563,3.308,21.845c2.618,17.305,5.24,34.609,7.834,51.918
		c0.464,3.093-1.4,5.712-4.232,6.129c-3.021,0.445-5.473-1.227-5.97-4.399c-2.117-13.525-4.15-27.063-6.2-40.598
		c-1.661-10.965-3.214-21.948-4.978-32.896c-1.815-11.262,4.989-20.455,16.284-22.113c21.43-3.147,42.836-6.459,64.253-9.693
		c14.221-2.147,28.445-4.275,42.666-6.426c0.672-0.102,1.323-0.34,1.984-0.514c1.908,0,3.817,0,5.725,0
		c0.387,0.166,0.761,0.377,1.163,0.49c7.98,2.251,12.695,7.418,13.986,15.642c0.605,3.852,1.252,7.7,1.744,11.567
		c0.195,1.532,0.808,2.211,2.353,2.447c5.309,0.81,10.6,1.739,15.896,2.639c25.625,4.353,51.255,8.675,76.87,13.085
		c11.784,2.029,18.829,12.25,16.755,23.994c-0.844,4.778-1.589,9.573-2.404,14.356c-9.35,54.92-18.693,109.84-28.069,164.756
		c-1.522,8.916-6.701,14.607-15.465,16.991c-0.39,0.106-0.743,0.345-1.114,0.523C816.192,46.129,813.936,46.129,811.681,46.129z
		 M771.104-78.311c0,0.646-0.042,0.983,0.006,1.306c1.419,9.513,2.806,19.032,4.356,28.524c0.123,0.755,1.309,1.76,2.137,1.912
		c8.351,1.529,16.733,2.886,25.099,4.331c3.8,0.656,5.746,2.931,5.329,6.082c-0.412,3.107-2.999,4.769-6.832,4.212
		c-3.685-0.535-7.347-1.234-11.021-1.849c-4.214-0.705-8.43-1.397-12.774-2.117c1.006,7.273,1.953,14.121,2.938,21.251
		c5.59,0.965,11.468,1.979,17.345,2.996c3.675,0.636,5.659,3.04,5.124,6.201c-0.519,3.067-3.319,4.688-6.984,4.053
		c-6.317-1.094-12.629-2.221-18.96-3.23c-0.808-0.129-1.957,0.095-2.538,0.615c-3.16,2.823-6.874,4.291-10.986,4.917
		c-18.162,2.761-36.325,5.514-54.487,8.277c-3.023,0.46-6.041,0.952-9.196,1.451c1.337,3.91,3.807,5.987,7.349,6.814
		c1.431,0.334,2.908,0.461,4.36,0.71c33.903,5.795,67.805,11.595,101.707,17.39c5.686,0.972,10.603-2.461,11.586-8.18
		c2.641-15.37,5.233-30.748,7.852-46.122c4.771-28.014,9.546-56.028,14.323-84.042c2.825-16.569,5.697-33.13,8.465-49.709
		c1.026-6.145-2.313-10.632-8.563-11.706c-25.103-4.315-50.21-8.601-75.317-12.89c-5.166-0.882-10.337-1.732-15.817-2.649
		c3.201,21.205,6.346,42.032,9.584,63.48c4.877-5.871,9.279-11.212,13.728-16.515c5.493-6.547,13.74-5.139,16.732,2.88
		c5.389,14.44,10.683,28.915,16.113,43.339c1.402,3.724,1.336,7.127-1.247,10.25c-2.68,3.24-6.19,3.743-10.138,3.041
		C790.74-75.002,781.085-76.606,771.104-78.311z M786.268-125.363c-5.744,6.922-11.063,13.525-16.62,19.921
		c-1.831,2.107-2.553,4.057-1.825,6.777c0.601,2.245,0.929,4.603,1.042,6.926c0.1,2.068,0.98,2.771,2.938,3.063
		c5.908,0.881,11.786,1.967,17.678,2.958c3.896,0.655,7.798,1.282,12.209,2.006C796.487-97.765,791.48-111.289,786.268-125.363z"/>
	<path fill="#FFFFFF" d="M724.36-140.966c-1.085,2.582-1.749,5.461-3.328,7.694c-6.305,8.918-12.833,17.681-19.401,26.41
		c-4.774,6.345-12.675,7.531-19.116,2.87c-8.849-6.404-17.639-12.892-26.365-19.463c-6.09-4.585-7.331-12.558-2.878-18.73
		c6.492-8.999,13.077-17.934,19.773-26.782c4.537-5.996,12.393-7.166,18.524-2.761c8.941,6.423,17.765,13.012,26.604,19.576
		C721.807-149.452,723.689-145.787,724.36-140.966z M713.689-141.471c-0.766-0.939-1.347-2.023-2.239-2.689
		c-8.325-6.212-16.695-12.365-25.073-18.507c-2.514-1.843-3.862-1.657-5.671,0.786c-6.183,8.348-12.344,16.711-18.49,25.086
		c-1.732,2.36-1.54,3.762,0.767,5.473c8.343,6.189,16.701,12.358,25.07,18.511c2.521,1.853,3.81,1.681,5.653-0.803
		c6.188-8.344,12.348-16.709,18.491-25.086C712.739-139.44,713.08-140.326,713.689-141.471z"/>
	<path fill="#FFFFFF" d="M671.894-27.292c-3.022,0.031-5.263-1.906-5.521-4.61c-0.288-3.02,1.474-5.259,4.699-5.76
		c8.037-1.25,16.083-2.437,24.125-3.653c12.063-1.825,24.128-3.64,36.188-5.489c3.759-0.577,6.451,0.933,6.964,4.021
		c0.557,3.351-1.335,5.625-5.294,6.23c-20.101,3.071-40.205,6.121-60.308,9.176C672.405-27.327,672.058-27.308,671.894-27.292z"/>
	<path fill="#FFFFFF" d="M666.986-60.442c-3.134,0.073-5.423-1.847-5.687-4.66c-0.264-2.81,1.631-5.153,4.887-5.676
		c7.261-1.166,14.542-2.209,21.815-3.304c12.15-1.83,24.298-3.665,36.449-5.49c1.198-0.18,2.401-0.4,3.607-0.442
		c2.853-0.1,5.06,1.79,5.423,4.532c0.331,2.5-1.321,5.06-4.003,5.559c-5.187,0.964-10.414,1.711-15.632,2.504
		c-14.885,2.261-29.772,4.502-44.66,6.744C668.414-60.56,667.634-60.51,666.986-60.442z"/>
	<path fill="#FFFFFF" d="M620.536-85.092c-0.044-2.892,2.112-5.141,4.99-5.206c2.865-0.065,5.186,2.1,5.297,4.937
		c0.113,2.908-2.26,5.396-5.154,5.402C622.856-79.952,620.579-82.23,620.536-85.092z"/>
</g>
<g>
	<path fill="#FFFFFF" d="M480.385,627.163c-4.97,0-9.941,0-14.911,0c-1.708-0.209-3.415-0.429-5.124-0.627
		c-24.634-2.851-46.684-12-65.915-27.613c-24.955-20.26-40.912-46.059-46.785-77.833c-0.839-4.537-1.317-9.141-1.962-13.714
		c0-4.97,0-9.941,0-14.911c0.211-1.711,0.432-3.422,0.63-5.135c2.85-24.635,12.014-46.68,27.621-65.913
		c20.256-24.963,46.057-40.913,77.833-46.783c4.533-0.838,9.134-1.313,13.703-1.955c4.97,0,9.941,0,14.911,0
		c1.707,0.21,3.414,0.429,5.122,0.627c25.077,2.91,47.446,12.33,66.883,28.392c24.425,20.184,40.05,45.732,45.821,77.053
		c0.836,4.538,1.315,9.141,1.96,13.714c0,4.805,0,9.609,0,14.414c-0.168,1.133-0.394,2.261-0.494,3.4
		c-0.962,11.019-3.335,21.728-7.231,32.075c-9.708,25.786-26.006,46.491-48.568,62.214c-14.418,10.048-30.263,16.939-47.585,20.196
		C491.027,625.756,485.69,626.374,480.385,627.163z M558.909,500.039c0.162-46.277-39.289-85.859-85.812-86.097
		c-46.263-0.236-85.814,39.131-86.147,85.749c-0.331,46.284,39.399,86.145,85.929,86.211
		C519.245,585.967,558.746,546.543,558.909,500.039z M575.928,554.267c7.242-10.579,14.833-37.554,13.906-49.257
		c-6.979,0-13.965,0-20.601,0c-1.309,6.758-2.17,13.425-3.961,19.832c-1.811,6.479-4.543,12.701-6.954,19.258
		C563.983,547.37,569.963,550.823,575.928,554.267z M477.989,616.996c15.345-0.223,41.779-7.858,49.216-14.209
		c-3.411-5.903-6.835-11.828-10.366-17.94c-12.231,6.382-25.165,9.993-38.85,10.868
		C477.989,602.935,477.989,609.863,477.989,616.996z M428.748,414.525c6.632-2.441,12.777-5.153,19.182-6.934
		c6.475-1.8,13.206-2.676,19.872-3.966c0-6.776,0-13.773,0-20.77c-15.536,0.294-41.54,7.794-49.153,14.193
		C422.061,402.952,425.484,408.877,428.748,414.525z M527.3,396.888c-11.715-7.497-34.613-13.981-49.251-14.002
		c0,6.995,0,13.992,0,20.732c6.693,1.297,13.431,2.171,19.908,3.981c6.466,1.807,12.669,4.553,19.144,6.945
		C520.389,408.853,523.811,402.929,527.3,396.888z M369.757,445.475c-8.359,15.493-13.11,31.78-13.956,49.348
		c7.147,0,14.144,0,21.358,0c0.831-13.716,4.518-26.624,10.831-38.825C381.803,452.427,375.877,449.007,369.757,445.475z
		 M590.064,494.817c-0.872-17.565-5.58-33.863-13.979-49.339c-6.173,3.569-12.148,7.023-18.237,10.544
		c6.419,12.29,9.995,25.166,10.864,38.795C575.926,494.817,582.926,494.817,590.064,494.817z M355.802,505.017
		c0.852,17.564,5.578,33.858,13.967,49.348c6.156-3.557,12.135-7.013,17.774-10.272c-2.41-6.523-5.131-12.662-6.918-19.062
		c-1.811-6.486-2.698-13.229-4.02-20.015C369.951,505.017,362.956,505.017,355.802,505.017z M467.831,617.05
		c0-7.149,0-14.145,0-21.359c-13.719-0.827-26.625-4.52-38.826-10.829c-3.571,6.187-6.991,12.113-10.516,18.222
		C433.972,611.469,450.267,616.195,467.831,617.05z M420.507,420.147c-3.626-6.262-7.077-12.223-10.578-18.269
		c-14.168,9.44-25.716,20.964-35.035,35.057c6.148,3.552,12.125,7.004,18.267,10.552
		C400.539,436.583,409.55,427.565,420.507,420.147z M570.979,436.932c-9.437-14.179-20.99-25.76-35.069-35.044
		c-3.575,6.191-6.999,12.119-10.324,17.878c5.051,4.321,10.215,8.227,14.75,12.763c4.533,4.534,8.438,9.696,12.75,14.738
		C558.859,443.931,564.787,440.507,570.979,436.932z M409.942,597.966c3.578-6.195,7.002-12.124,10.332-17.888
		c-5.047-4.318-10.211-8.223-14.745-12.758c-4.534-4.534-8.439-9.697-12.759-14.747c-5.81,3.361-11.781,6.815-17.88,10.344
		C384.27,577.047,395.805,588.583,409.942,597.966z M552.697,552.356c-7.379,10.935-16.471,19.97-27.334,27.357
		c3.599,6.214,7.054,12.178,10.575,18.258c14.162-9.47,25.766-20.988,35.017-35.077
		C564.737,559.305,558.809,555.884,552.697,552.356z"/>
	<path fill="#FFFFFF" d="M497.316,494.88c3.929,0,7.563,0,11.158,0c4.365-7.974,10.52-11.206,17.747-9.37
		c6.593,1.676,11.24,7.556,11.303,14.303c0.062,6.703-4.535,12.7-11.093,14.469c-7.276,1.963-13.412-1.203-18.018-9.389
		c-3.236,0-6.546-0.051-9.851,0.05c-0.547,0.017-1.419,0.596-1.559,1.082c-2.751,9.608-9.082,15.5-18.588,18.175
		c-0.145,0.041-0.262,0.185-0.516,0.372c0,3.135-0.112,6.367,0.081,9.58c0.046,0.77,0.959,1.752,1.728,2.174
		c5.696,3.124,8.878,9.143,7.945,15.304c-0.996,6.574-5.75,11.471-12.273,12.642c-6.938,1.245-14.067-2.91-16.39-9.552
		c-2.513-7.187,0.305-14.739,7.023-18.188c1.619-0.831,2.047-1.742,1.978-3.403c-0.12-2.888-0.033-5.786-0.033-8.789
		c-10.245-2.688-16.734-9.107-19.409-19.349c-3.795,0-7.5,0-11.181,0c-4.349,7.946-10.505,11.178-17.732,9.341
		c-6.593-1.676-11.24-7.557-11.303-14.304c-0.062-6.703,4.535-12.699,11.094-14.469c7.276-1.963,13.411,1.203,18.018,9.389
		c3.236,0,6.546,0.051,9.851-0.05c0.547-0.017,1.419-0.596,1.558-1.082c2.751-9.608,9.082-15.5,18.589-18.175
		c0.145-0.041,0.262-0.185,0.516-0.372c0-3.135,0.112-6.367-0.081-9.58c-0.046-0.77-0.96-1.752-1.728-2.174
		c-5.696-3.124-8.878-9.143-7.945-15.304c0.996-6.574,5.75-11.471,12.273-12.642c6.938-1.245,14.067,2.91,16.39,9.552
		c2.513,7.187-0.305,14.739-7.023,18.188c-1.619,0.831-2.047,1.743-1.978,3.403c0.12,2.889,0.033,5.786,0.033,8.789
		C488.145,478.189,494.634,484.609,497.316,494.88z M472.898,485.03c-8.103,0.023-14.838,6.759-14.86,14.862
		c-0.022,8.094,6.686,14.857,14.8,14.922c8.182,0.065,15.05-6.804,14.984-14.986C487.755,491.713,480.992,485.007,472.898,485.03z
		 M477.86,450.102c-0.074-2.612-2.459-4.888-5.046-4.815c-2.612,0.074-4.888,2.459-4.815,5.045c0.074,2.612,2.459,4.888,5.046,4.815
		C475.657,455.074,477.933,452.689,477.86,450.102z M428.156,499.978c0.036-2.589-2.272-4.95-4.874-4.987
		c-2.588-0.036-4.95,2.272-4.987,4.874c-0.036,2.588,2.272,4.95,4.874,4.987C425.758,504.888,428.119,502.58,428.156,499.978z
		 M522.714,504.852c2.609-0.052,4.901-2.42,4.849-5.011c-0.052-2.609-2.421-4.901-5.011-4.849c-2.609,0.052-4.901,2.421-4.849,5.011
		C517.755,502.612,520.123,504.903,522.714,504.852z M477.86,549.692c0.043-2.589-2.259-4.954-4.864-4.997
		c-2.589-0.043-4.954,2.259-4.997,4.864c-0.043,2.589,2.259,4.954,4.864,4.997C475.452,554.598,477.817,552.296,477.86,549.692z"/>
	<path fill="#FFFFFF" d="M544.494,479.507c0.034,2.751-1.512,4.765-3.764,5.323c-2.18,0.541-4.507-0.491-5.522-2.758
		c-1.28-2.861-1.984-6.028-3.552-8.701c-3.208-5.466-6.817-10.696-10.286-16.008c-0.585-0.896-1.373-1.665-1.926-2.578
		c-1.326-2.187-0.9-4.678,0.98-6.268c1.79-1.515,4.237-1.599,6.154-0.083c0.899,0.712,1.677,1.595,2.435,2.465
		c6.883,7.9,11.95,16.823,15.052,26.844C544.283,478.449,544.416,479.179,544.494,479.507z"/>
	<path fill="#FFFFFF" d="M512.653,440.226c0.032,2.6-2.27,4.949-4.88,4.981c-2.601,0.031-4.948-2.269-4.981-4.88
		c-0.032-2.6,2.268-4.947,4.88-4.981C510.271,435.313,512.62,437.615,512.653,440.226z"/>
</g>
<g>
	<path fill="#FFFFFF" d="M337.687,101.133c-2.113,7.922-6.838,14.492-10.905,21.435c-14.762,25.194-29.371,50.478-44.02,75.739
		c-14.921,25.731-29.82,51.476-44.732,77.213c-5.082,8.771-11.241,11.355-20.777,7.811c-5.389-2.003-10.557-4.807-15.483-7.81
		c-15.408-9.392-12.728-8.227-28.996-8.25c-31.319-0.045-62.638-0.013-93.958-0.013c-11.751,0-15.825-2.746-20.114-13.554
		c0-67.385,0-134.77,0-202.155c4.472-10.874,8.379-13.441,20.459-13.441c34.391,0,68.783,0.007,103.174-0.011
		c3.431-0.002,7.474,0.925,10.116-0.563c2.535-1.427,3.634-5.425,5.333-8.311c5.529-9.391,14.692-11.883,24.163-6.444
		c34.819,19.998,69.61,40.046,104.435,60.035c5.269,3.024,9.616,6.753,11.304,12.871C337.687,97.5,337.687,99.317,337.687,101.133z
		 M205.861,152.577c0-31.964,0.001-63.927-0.001-95.891c0-6.013-1.62-7.677-7.532-7.678c-40.409-0.005-80.817-0.006-121.226,0
		c-5.747,0.001-7.5,1.76-7.5,7.461c-0.001,64.109-0.001,128.218,0,192.327c0,5.792,1.709,7.53,7.421,7.531
		c40.499,0.003,80.999,0.003,121.498,0c5.589,0,7.338-1.745,7.338-7.313C205.863,216.868,205.861,184.722,205.861,152.577z
		 M207.25,265.809c3.999,2.299,7.618,4.368,11.226,6.456c5.126,2.965,7.479,2.366,10.41-2.694
		c32.012-55.26,64.023-110.521,96.033-165.783c2.802-4.838,2.462-6.963-2.024-10.385c-2.079-1.586-4.392-2.886-6.677-4.176
		c-2.762-1.56-5.656-2.885-8.407-4.464c-22.185-12.734-44.35-25.502-66.52-38.263c-8.334-4.797-16.653-9.618-24.998-14.395
		c-3.185-1.823-5.803-1.723-7.634,0.567c-1.431,1.789-2.457,3.9-3.721,5.962c8.552,3.413,11.905,9.492,11.889,18.237
		c-0.118,63.566-0.126,127.133,0.016,190.699C216.86,255.399,214.783,261.648,207.25,265.809z"/>
	<path fill="#FFFFFF" d="M143.294,171.983c0,2.796,0,5.77,0,9.115c3.43,0,6.759-0.028,10.086,0.007
		c3.765,0.04,5.873,1.9,5.986,5.205c0.114,3.338-2.136,5.629-5.905,5.654c-10.436,0.07-20.873,0.065-31.31,0.004
		c-3.84-0.022-6.037-2.168-6.002-5.544c0.035-3.411,2.172-5.288,6.127-5.322c3.242-0.028,6.484-0.006,9.863-0.006
		c0-3.526,0-6.742,0-9.265c-4.119,0.292-8.343,1.407-12.251,0.724c-15.766-2.757-22.976-23.595-12.321-35.505
		c7.738-8.649,15.876-16.949,24.007-25.237c5.074-5.171,8.739-5.17,13.624,0.141c7.92,8.611,15.792,17.286,23.255,26.289
		c5.513,6.651,6.034,14.437,2.612,22.293c-3.404,7.814-9.471,12.349-18.058,12.757C149.843,173.445,146.624,172.467,143.294,171.983
		z M138.22,121.249c-7.639,7.856-15.039,15.429-22.376,23.063c-0.791,0.823-1.344,1.945-1.791,3.018
		c-1.922,4.621-0.319,9.833,3.839,12.746c3.988,2.794,8.457,2.363,12.373-1.202c0.738-0.671,1.429-1.395,2.188-2.041
		c3.64-3.102,6.239-3.136,9.904-0.125c1.121,0.92,2.156,1.947,3.298,2.838c4.294,3.35,9.839,3.064,13.601-0.663
		c3.902-3.865,4.442-9.625,0.785-13.765C153.021,137.17,145.744,129.449,138.22,121.249z"/>
	<path fill="#FFFFFF" d="M195.079,103.582c0,5.17,0.04,10.341-0.013,15.511c-0.039,3.835-2.127,6.111-5.429,6.092
		c-3.263-0.019-5.415-2.333-5.435-6.153c-0.055-10.431-0.061-20.863,0.004-31.294c0.024-3.862,2.129-5.915,5.633-5.834
		c3.394,0.079,5.19,2.041,5.227,5.896C195.116,93.059,195.078,98.321,195.079,103.582z"/>
	<path fill="#FFFFFF" d="M189.568,70.658c-3.072-0.053-5.118-2.28-5.069-5.517c0.048-3.162,2.284-5.409,5.306-5.332
		c2.982,0.077,5.171,2.462,5.114,5.573C194.86,68.534,192.652,70.711,189.568,70.658z"/>
	<path fill="#FFFFFF" d="M91.057,239.891c0.028,3.165-2.13,5.487-5.135,5.525c-2.95,0.037-5.276-2.319-5.326-5.393
		c-0.05-3.12,2.134-5.411,5.19-5.445C88.905,234.543,91.028,236.683,91.057,239.891z"/>
	<path fill="#FFFFFF" d="M295.525,116.364c4.29,0.042,6.987,4.257,4.933,8.022c-4.643,8.51-9.4,16.958-14.212,25.373
		c-0.885,1.547-2.108,2.974-3.427,4.18c-2.102,1.922-4.671,1.941-6.699,0.352c-2.092-1.638-2.813-4.416-1.523-6.835
		c1.705-3.197,3.59-6.299,5.407-9.436c3.544-6.117,7.111-12.222,10.634-18.351C291.743,117.745,293.122,116.322,295.525,116.364z"/>
</g>
</svg>
