<?xml version="1.0" encoding="utf-8"?>
<!-- Generator: Adobe Illustrator 17.0.0, SVG Export Plug-In . SVG Version: 6.00 Build 0)  -->
<!DOCTYPE svg PUBLIC "-//W3C//DTD SVG 1.1//EN" "http://www.w3.org/Graphics/SVG/1.1/DTD/svg11.dtd">
<svg version="1.1" id="Layer_1" xmlns="http://www.w3.org/2000/svg" xmlns:xlink="http://www.w3.org/1999/xlink" x="0px" y="0px"
	 width="1080px" height="472px" viewBox="0 0 1080 472" enable-background="new 0 0 1080 472" xml:space="preserve">
<rect x="-2049.504" y="1271.03" fill="#2C2E36" width="5029.302" height="631.303"/>
<g>
	<path fill="#7D7E80" d="M-738.113,1518.262c0-5.909,0-11.819,0-17.728c0.168-1.048,0.377-2.095,0.545-3.143
		c0.964-6.496,1.467-13.118,2.892-19.53c7.921-36.337,26.571-66.093,56.16-88.516c36.84-27.871,78.289-37.133,123.511-27.703
		c36.211,7.544,65.632,26.53,88.139,55.783c24.308,31.601,34.409,67.56,30.595,107.124c-3.101,32.062-15.549,60.394-36.923,84.576
		c-23.428,26.488-52.64,43.001-87.51,49.203c-5.7,1.006-11.484,1.593-17.225,2.347c-5.909,0-11.819,0-17.728,0
		c-0.754-0.168-1.509-0.419-2.263-0.503c-23.68-1.676-45.809-8.424-66.01-20.83c-39.187-24.015-63.327-58.633-71.793-103.939
		C-736.814,1529.746-737.359,1523.962-738.113,1518.262z M-586.689,1615.076c59.094-0.629,105.573-47.611,105.448-105.825
		c-0.126-59.094-47.527-105.531-105.699-105.448c-59.01,0.126-105.573,47.401-105.448,105.699
		C-692.263,1568.765-644.736,1614.657-586.689,1615.076z M-726.546,1497.726c0,7.921,0,15.591,0,23.177c7.879,0,15.507,0,23.093,0
		c0-7.837,0-15.465,0-23.177C-711.206,1497.726-718.75,1497.726-726.546,1497.726z M-598.802,1370.024c0,7.879,0,15.507,0,23.177
		c7.837,0,15.465,0,23.051,0c0-7.837,0-15.465,0-23.177C-583.462,1370.024-591.006,1370.024-598.802,1370.024z M-598.802,1625.512
		c0,7.963,0,15.591,0,23.135c7.837,0,15.465,0,23.009,0c0-7.837,0-15.423,0-23.135
		C-583.504,1625.512-591.048,1625.512-598.802,1625.512z M-661.039,1419.185c-5.448-5.448-10.897-10.813-15.926-15.842
		c-5.281,5.281-10.729,10.729-15.758,15.8c5.113,5.155,10.478,10.562,15.8,15.926
		C-671.726,1429.914-666.362,1424.55-661.039,1419.185z M-496.288,1403.343c-5.365,5.365-10.813,10.729-15.842,15.758
		c5.197,5.197,10.562,10.604,15.758,15.8c5.197-5.197,10.562-10.604,15.8-15.884
		C-485.81,1413.779-491.216,1408.414-496.288,1403.343z M-677.343,1615.663c5.448-5.406,10.897-10.771,16.136-15.968
		c-5.281-5.239-10.645-10.645-15.758-15.759c-5.281,5.323-10.729,10.771-16.01,16.094
		C-687.904,1605.144-682.539,1610.466-677.343,1615.663z M-496.623,1615.789c5.323-5.406,10.729-10.897,15.926-16.177
		c-5.113-5.155-10.478-10.562-15.507-15.591c-5.323,5.323-10.771,10.771-16.136,16.136
		C-507.31,1605.144-502.029,1610.424-496.623,1615.789z M-470.973,1520.945c7.754,0,15.381,0,23.009,0c0-7.837,0-15.465,0-23.177
		c-7.754,0-15.297,0-23.009,0C-470.973,1505.563-470.973,1513.191-470.973,1520.945z"/>
	<path fill="#7D7E80" d="M-500.688,1509.251c-0.335,47.317-37.636,86.001-86.001,86.169c-47.317,0.126-86.043-37.552-86.169-85.875
		c-0.126-47.317,37.552-86.001,85.875-86.169C-539.623,1423.25-501.275,1460.928-500.688,1509.251z M-583.504,1541.607
		c0.21-0.084,0.419-0.168,0.587-0.251c0.293,0.251,0.587,0.461,0.88,0.713c10.184,10.268,31.685,6.999,38.307-6.706
		c5.826-12.028,4.987-24.141-3.185-34.451c-7.041-8.885-15.675-16.555-23.847-24.518c-5.029-4.945-10.52-9.43-16.01-14.292
		c-13.495,12.07-27.493,23.344-38.977,37.133c-7.879,9.43-9.43,20.536-5.993,32.229c4.401,15.13,24.56,22.003,37.385,12.867
		c1.257-0.922,2.473-1.886,4.191-3.227c-1.593,5.826-3.059,10.981-4.526,16.303c5.365,0,10.352,0,15.549,0
		C-580.612,1551.917-582.079,1546.762-583.504,1541.607z"/>
</g>
<g>
	<path fill="#7D7E80" d="M1795.901-639.685c37.049,0,74.14,0,111.441,0c0,48.03,0,95.641,0,143.88c-37.133,0-74.266,0-111.441,0
		C1795.901-543.751,1795.901-591.739,1795.901-639.685z M1866.227-591.236c-0.922,1.593-1.886,3.227-2.892,4.904
		c-11.064,18.273-19.321,37.678-24.895,58.214c-1.257,4.694,0.461,8.382,4.359,9.514c4.191,1.215,7.963-1.048,9.262-5.826
		c7.251-26.739,19.279-51.257,36.085-73.554c0.251-0.335,0.461-0.629,0.671-0.964c1.928-2.976,2.012-5.993-0.377-8.676
		c-2.431-2.682-5.616-3.311-8.717-1.425c-7.167,4.359-14.375,4.191-21.836,1.006c-1.341-0.587-2.808-0.838-4.233-1.257
		c-10.1-2.892-19.908-1.593-29.505,2.012c-3.94,1.467-5.658,4.945-4.526,8.424c1.215,3.772,4.652,5.532,8.927,4.568
		c0.796-0.168,1.551-0.461,2.305-0.712c7.586-2.64,15.172-2.682,22.799,0.042C1857.677-593.541,1861.784-592.536,1866.227-591.236z"
		/>
	<path fill="#7D7E80" d="M1795.901-481.723c1.467-0.084,2.934-0.251,4.401-0.251c118.063,0,236.126,0,354.189,0
		c1.467,0,2.934,0,4.526,0c0,6.37,0.671,12.657-0.209,18.734c-0.796,5.616-6.077,9.304-12.028,9.849
		c-1.844,0.168-3.73,0.168-5.616,0.168c-108.968,0-217.895-0.042-326.863,0.126c-8.759,0-15.088-2.473-18.441-10.603
		C1795.901-469.737,1795.901-475.73,1795.901-481.723z"/>
	<path fill="#7D7E80" d="M1795.901-671.747c3.353-7.879,9.388-10.562,18.063-10.52c109.345,0.168,218.691,0.126,328.036,0.084
		c4.359,0,8.927-0.21,12.07,3.101c2.263,2.347,4.61,5.448,5.071,8.466c0.796,5.448,0.21,11.106,0.21,17.183
		c-1.802,0-3.353,0-4.904,0c-118.063,0-236.126,0-354.189,0c-1.467,0-2.934-0.21-4.359-0.335
		C1795.901-659.761,1795.901-665.754,1795.901-671.747z"/>
	<path fill="#7D7E80" d="M2207.675-533.357c-3.479,8.047-9.723,11.106-18.525,10.394c-4.904-0.419-9.849-0.084-15.046-0.084
		c0-29.799,0-59.304,0-89.102c1.593-0.168,3.227-0.335,5.323-0.545c0-1.509,0-2.934,0-4.317c0-31.643,0-63.327,0.042-94.97
		c0-2.137-0.084-3.73-2.598-4.987c-9.178-4.61-13.286-13.789-10.939-23.302c2.137-8.634,10.226-15.004,19.489-15.381
		c9.891-0.419,18.147,5.239,21.375,14.543c0.251,0.712,0.587,1.383,0.922,2.096c0,2.598,0,5.197,0,7.837
		c-2.263,5.951-5.239,11.442-11.526,14.208c-2.263,1.006-2.682,2.347-2.682,4.526c0.084,31.978,0.042,63.998,0.084,95.976
		c0,1.257,0,2.515,0,3.94c7.418,0.461,11.4,4.652,14.124,10.394C2207.675-579.208,2207.675-556.283,2207.675-533.357z"/>
	<path fill="#7D7E80" d="M2033.577-639.476c0,47.904,0,95.515,0,143.377c-37.217,0-74.266,0-111.567,0c0-47.778,0-95.473,0-143.377
		C1959.185-639.476,1996.151-639.476,2033.577-639.476z M1989.193-591.236c-0.838,1.383-1.593,2.724-2.389,4.023
		c-11.4,18.692-19.908,38.558-25.524,59.597c-1.132,4.275,0.796,8.005,4.652,9.053c3.94,1.048,7.544-0.964,8.927-5.239
		c1.173-3.604,2.095-7.251,3.269-10.855c7.418-22.925,18.483-44.048,33.068-63.411c2.682-3.562,2.724-7.041,0.21-9.598
		c-2.85-2.892-6.119-2.976-9.472-1.006c-6.203,3.646-12.531,3.982-19.195,1.215c-2.096-0.88-4.317-1.383-6.496-1.97
		c-9.975-2.766-19.656-1.383-29.086,2.179c-3.563,1.341-5.407,4.526-4.652,7.754c0.796,3.479,3.185,5.406,6.832,5.574
		c1.425,0.042,2.892-0.461,4.275-0.964c7.879-2.724,15.675-2.766,23.554,0.126C1980.769-593.416,1984.709-592.536,1989.193-591.236z
		"/>
	<path fill="#7D7E80" d="M2048.12-496.099c0-47.904,0-95.515,0-143.335c37.133,0,74.056,0,111.189,0c0,47.82,0,95.431,0,143.335
		C2122.302-496.099,2085.379-496.099,2048.12-496.099z M2110.232-591.362c-0.587,1.09-1.216,2.179-1.802,3.311
		c-4.652,8.759-9.975,17.309-13.831,26.404c-4.652,10.897-8.34,22.213-12.028,33.487c-2.012,6.119,2.556,11.106,8.34,9.556
		c3.437-0.922,4.694-3.562,5.49-6.622c7.167-26.362,19.111-50.503,35.582-72.506c3.018-4.023,3.143-7.083,0.587-9.933
		c-2.515-2.808-5.658-3.185-10.184-0.712c-5.784,3.143-11.609,3.604-17.728,1.215c-1.509-0.587-3.06-1.006-4.568-1.509
		c-10.645-3.604-21.081-2.557-31.433,1.174c-2.85,1.006-4.778,2.85-5.071,5.951c-0.545,5.49,4.401,9.011,10.268,6.873
		c8.76-3.143,17.225-2.976,25.859,0.335C2102.981-593.039,2106.544-592.368,2110.232-591.362z"/>
</g>
<g>
	<path fill="#7D7E80" d="M476.597,632.864c0,1.802,0,3.562,0,5.365c-3.06,7.628-8.55,13.244-16.052,17.016
		c-3.688,1.844-7.376,1.76-10.562-1.341c-1.383-1.383-3.06-2.515-5.113-4.191c0,1.886,0,3.018,0,4.191c0,42.246,0,84.492,0,126.738
		c0,9.64-6.203,16.094-15.968,16.178c-19.447,0.168-38.851,0.126-58.298,0c-6.873-0.042-12.196-3.646-14.04-9.43
		c-0.754-2.305-0.922-4.904-0.922-7.334c-0.042-29.421-0.042-58.843-0.042-88.264c0-1.132,0-2.305,0-3.479
		c-23.931,0-47.443,0-71.165,0c0,1.341,0,2.431,0,3.521c0,13.328,0,26.655,0,39.941c0,16.219,0.042,32.397,0,48.617
		c-0.042,10.017-6.329,16.429-16.387,16.471c-18.064,0.084-36.169,0.084-54.233,0c-6.831-0.042-12.154-2.808-14.878-8.927
		c-1.132-2.557-1.467-5.616-1.467-8.424c-0.084-42.54-0.042-85.079-0.042-127.619c0-1.132,0-2.221,0-4.065
		c-3.646,3.143-6.538,5.826-9.723,8.215c-2.012,1.509-4.275,2.976-6.664,3.646c-7.292,1.97-12.783-1.215-17.644-6.161
		c-8.256-8.382-8.005-16.429,0.922-24.224c46.353-40.612,92.665-81.265,139.018-121.919c9.304-8.131,18.147-8.298,27.619-0.377
		c45.641,38.223,91.324,76.445,137.007,114.626C471.693,624.817,475.172,628.086,476.597,632.864z"/>
</g>
<g>
	<path fill="#2FB62F" d="M-1685.55,1340.057c6.287,0,12.573,0.084,18.902-0.042c2.515-0.042,3.437,0.838,3.353,3.353
		c-0.126,5.784,0.084,11.568-0.084,17.351c-0.084,2.766,0.88,3.772,3.521,4.275c16.597,3.227,32.523,8.382,46.982,17.351
		c34.954,21.626,58.005,51.886,66.806,92.372c10.226,46.898-0.461,88.809-31.14,125.397c-21.835,26.026-50.042,41.827-83.486,47.611
		c-44.593,7.712-84.492-3.185-119.069-32.313c-26.11-21.961-42.037-50.209-47.82-83.78c-7.67-44.593,3.227-84.492,32.355-119.069
		c21.877-25.985,50.042-41.617,83.444-47.695c2.976-0.545,3.772-1.76,3.688-4.568c-0.168-5.658,0.042-11.316-0.084-16.974
		c-0.042-2.557,0.88-3.395,3.395-3.353C-1698.417,1340.141-1691.962,1340.057-1685.55,1340.057z M-1574.109,1506.234
		c0.335-60.896-50.335-112.363-112.656-112.07c-60.98,0.293-111.525,50.838-111.525,112.112
		c0.042,61.609,50.964,111.818,111.567,112.112C-1624.863,1618.639-1573.774,1567.55-1574.109,1506.234z"/>
	<path fill="#2FB62F" d="M-1608.141,1578.991c-5.155-4.778-10.184-9.346-15.13-13.998c-17.267-16.136-34.535-32.271-51.844-48.365
		c-2.137-1.97-3.101-4.023-3.101-6.999c0.084-35.457,0.084-70.913,0-106.328c0-3.227,0.796-4.484,4.191-3.814
		c42.54,8.466,72.338,32.565,86.294,73.721c12.867,37.887,5.49,73.093-19.153,104.651
		C-1607.093,1578.195-1607.428,1578.404-1608.141,1578.991z"/>
</g>
<g>
	<path fill="#7D7E80" d="M1787.393,350.417c1.341-7.041,3.982-13.453,8.717-18.986c4.317-5.071,9.556-8.717,15.884-10.855
		c19.195-6.37,38.39-12.741,57.585-19.237c1.97-0.671,3.101-0.251,4.484,1.132c12.364,12.322,26.991,20.662,44.132,24.057
		c25.021,4.945,47.527-1.132,67.728-16.387c3.269-2.473,6.119-5.49,9.304-8.047c0.838-0.671,2.473-1.09,3.437-0.754
		c19.572,6.412,39.187,12.825,58.675,19.53c14.292,4.904,23.889,18.734,23.931,33.822c0.042,11.651,0,23.302,0,35.373
		c-98.071,0-195.933,0-293.837,0C1787.393,376.82,1787.393,363.619,1787.393,350.417z"/>
	<path fill="#7D7E80" d="M1941.163,96.227c4.191,0.754,8.466,1.299,12.615,2.347c21.626,5.532,37.594,18.064,47.234,38.39
		c0.251,0.503,0.419,1.048,0.754,1.886c-45.012,0-89.857,0-135.582,0c2.976-4.945,5.365-9.723,8.508-13.914
		c12.615-16.89,29.757-25.817,50.503-28.164c0.754-0.084,1.467-0.335,2.179-0.545C1931.985,96.227,1936.595,96.227,1941.163,96.227z
		"/>
	<path fill="#7D7E80" d="M1934.248,243.125c-24.015,0-47.988,0-72.003,0c-10.561,0-18.818-4.359-23.344-14.082
		c-1.676-3.604-2.389-7.879-2.515-11.861c-0.335-11.274-0.168-22.548-0.084-33.822c0.126-15.507,10.478-25.817,26.027-25.859
		c47.988-0.042,95.976-0.042,143.964,0c12.741,0,21.794,6.706,25.063,18.567c0.671,2.347,0.838,4.904,0.88,7.376
		c0.084,11.274,0.084,22.548,0.042,33.822c-0.084,12.573-6.79,21.71-18.399,24.937c-2.64,0.712-5.448,0.922-8.214,0.922
		C1981.859,243.167,1958.054,243.125,1934.248,243.125z M1885.212,182.103c-8.298,0-16.261,0-24.182,0c0,8.215,0,16.178,0,24.099
		c8.173,0,16.136,0,24.182,0C1885.212,198.071,1885.212,190.191,1885.212,182.103z"/>
	<path fill="#7D7E80" d="M1992.085,261.691c-6.831,23.135-32.984,42.204-57.753,42.204c-24.769,0-50.88-18.986-57.795-42.204
		C1915.011,261.691,1953.485,261.691,1992.085,261.691z"/>
</g>
<text transform="matrix(1 0 0 1 -1852.9492 1803.835)" fill="#FFFFFF" font-family="'Poppins-Medium'" font-size="113.1593">Inplay</text>
<text transform="matrix(1 0 0 1 -914.1318 1803.835)" fill="#7D7E80" font-family="'Poppins-Medium'" font-size="113.1593">LIve Casino</text>
<text transform="matrix(1 0 0 1 1415.8163 1803.835)" fill="#7D7E80" font-family="'Poppins-Medium'" font-size="113.1593">Slots</text>
<text transform="matrix(1 0 0 1 2302.6614 1803.835)" fill="#7D7E80" font-family="'Poppins-Medium'" font-size="113.1593">Virtuals</text>
<text transform="matrix(1 0 0 1 288.0118 1803.835)" fill="#7D7E80" font-family="'Poppins-Medium'" font-size="113.1593">Home</text>
<g>
	<path fill="#7D7E80" d="M385.651,189.395c0.178-0.258,0.455-0.495,0.519-0.779c2.532-11.209,9.663-17.772,20.59-20.662
		c18.54-4.904,37.058-9.893,55.582-14.857c21.769-5.834,43.528-11.704,65.305-17.511c14.719-3.925,28.611,3.968,32.573,18.712
		c17.886,66.557,35.718,133.128,53.498,199.713c4.039,15.124-3.65,28.693-18.71,32.777c-40.891,11.086-81.811,22.065-122.761,32.93
		c-14.34,3.805-27.998-4.328-31.918-18.859c-12.418-46.034-24.736-92.094-37.068-138.151c-5.717-21.353-11.375-42.721-17.075-64.078
		c-0.076-0.283-0.352-0.513-0.534-0.768C385.651,195.04,385.651,192.217,385.651,189.395z M488.436,223.197
		c-4.337,0.333-6.528,2.13-7.611,5.343c-6.155,18.27-12.298,36.543-18.478,54.804c-1.107,3.271-0.356,5.957,2.193,8.2
		c14.496,12.759,28.966,25.548,43.508,38.254c4.396,3.841,9.748,2.381,11.645-3.185c6.218-18.247,12.312-36.537,18.497-54.795
		c1.113-3.286,0.347-5.959-2.194-8.196c-14.494-12.762-28.973-25.54-43.528-38.232C491.156,224.244,489.34,223.675,488.436,223.197z
		"/>
	<path fill="#7D7E80" d="M571.291,87.13c8.074,1.518,16.136,3.103,24.225,4.541c34.154,6.074,68.34,11.972,102.463,18.213
		c14.423,2.638,23.185,15.627,20.662,30.124c-7.269,41.761-14.668,83.5-22.025,125.245c-4.61,26.158-9.219,52.316-13.862,78.468
		c-2.682,15.105-14.491,23.998-29.71,22.155c-6.123-0.741-12.175-2.066-17.728-3.033c-6.088-30.533-15.469-59.852-23.072-89.618
		c-0.727-2.848-0.382-4.324,2.181-6.053c14.595-9.843,27.711-21.279,37.26-36.321c4.105-6.466,7.169-13.37,8.324-21.008
		c1.538-10.167-3.331-19.799-12.313-24.448c-9.098-4.709-19.914-3.047-27.332,4.24c-0.605,0.594-1.011,1.39-1.604,2.223
		c-8.888-15.142-14.972-17.912-32.197-14.826c-2.057-7.67-4.309-15.331-6.145-23.09c-2.781-11.753-7.896-21.993-17.714-29.478
		c-6.429-4.901-13.658-7.882-21.607-9.029c-0.004-14.157,7.726-23.53,18.402-27.042c1.321-0.435,2.651-0.843,3.976-1.263
		C566.08,87.13,568.686,87.13,571.291,87.13z"/>
</g>
</svg>
