<?xml version="1.0" encoding="utf-8"?>
<!-- Generator: Adobe Illustrator 17.0.0, SVG Export Plug-In . SVG Version: 6.00 Build 0)  -->
<!DOCTYPE svg PUBLIC "-//W3C//DTD SVG 1.1//EN" "http://www.w3.org/Graphics/SVG/1.1/DTD/svg11.dtd">
<svg version="1.1" id="Layer_1" xmlns="http://www.w3.org/2000/svg" xmlns:xlink="http://www.w3.org/1999/xlink" x="0px" y="0px"
	 width="22px" height="22px" viewBox="0 0 22 22" enable-background="new 0 0 22 22" xml:space="preserve">
<g>
	<path fill="#FFFFFF" d="M21.372,7.31c-0.155,0.58-0.501,1.061-0.799,1.57c-1.081,1.845-2.151,3.697-3.224,5.547
		c-1.093,1.885-2.184,3.77-3.276,5.655c-0.372,0.642-0.823,0.832-1.522,0.572c-0.395-0.147-0.773-0.352-1.134-0.572
		c-1.129-0.688-0.932-0.603-2.124-0.604C7,19.474,4.706,19.477,2.412,19.477c-0.861,0-1.159-0.201-1.473-0.993
		c0-4.935,0-9.871,0-14.806c0.328-0.796,0.614-0.984,1.498-0.984c2.519,0,5.038,0.001,7.557-0.001c0.251,0,0.547,0.068,0.741-0.041
		c0.186-0.105,0.266-0.397,0.391-0.609c0.405-0.688,1.076-0.87,1.77-0.472c2.55,1.465,5.098,2.933,7.649,4.397
		c0.386,0.221,0.704,0.495,0.828,0.943C21.372,7.043,21.372,7.177,21.372,7.31z M11.717,11.077c0-2.341,0-4.682,0-7.023
		c0-0.44-0.119-0.562-0.552-0.562c-2.96,0-5.919,0-8.879,0c-0.421,0-0.549,0.129-0.549,0.546c0,4.695,0,9.391,0,14.086
		c0,0.424,0.125,0.552,0.544,0.552c2.966,0,5.932,0,8.899,0c0.409,0,0.537-0.128,0.537-0.536
		C11.717,15.786,11.717,13.432,11.717,11.077z M11.819,19.371c0.293,0.168,0.558,0.32,0.822,0.473
		c0.375,0.217,0.548,0.173,0.762-0.197c2.345-4.047,4.689-8.095,7.034-12.142c0.205-0.354,0.18-0.51-0.148-0.761
		c-0.152-0.116-0.322-0.211-0.489-0.306c-0.202-0.114-0.414-0.211-0.616-0.327c-1.625-0.933-3.248-1.868-4.872-2.802
		c-0.61-0.351-1.22-0.704-1.831-1.054c-0.233-0.134-0.425-0.126-0.559,0.042c-0.105,0.131-0.18,0.286-0.273,0.437
		c0.626,0.25,0.872,0.695,0.871,1.336c-0.009,4.656-0.009,9.311,0.001,13.967C12.523,18.608,12.371,19.066,11.819,19.371z"/>
	<path fill="#FFFFFF" d="M7.135,12.499c0,0.205,0,0.423,0,0.668c0.251,0,0.495-0.002,0.739,0.001
		c0.276,0.003,0.43,0.139,0.438,0.381c0.008,0.244-0.156,0.412-0.432,0.414c-0.764,0.005-1.529,0.005-2.293,0
		c-0.281-0.002-0.442-0.159-0.44-0.406c0.003-0.25,0.159-0.387,0.449-0.39c0.237-0.002,0.475,0,0.722,0c0-0.258,0-0.494,0-0.679
		c-0.302,0.021-0.611,0.103-0.897,0.053c-1.155-0.202-1.683-1.728-0.902-2.6c0.567-0.633,1.163-1.241,1.758-1.848
		c0.372-0.379,0.64-0.379,0.998,0.01c0.58,0.631,1.157,1.266,1.703,1.925c0.404,0.487,0.442,1.057,0.191,1.633
		c-0.249,0.572-0.694,0.904-1.323,0.934C7.614,12.606,7.379,12.534,7.135,12.499z M6.763,8.783c-0.559,0.575-1.101,1.13-1.639,1.689
		c-0.058,0.06-0.098,0.142-0.131,0.221c-0.141,0.338-0.023,0.72,0.281,0.934c0.292,0.205,0.619,0.173,0.906-0.088
		c0.054-0.049,0.105-0.102,0.16-0.149c0.267-0.227,0.457-0.23,0.725-0.009c0.082,0.067,0.158,0.143,0.242,0.208
		c0.314,0.245,0.721,0.224,0.996-0.049c0.286-0.283,0.325-0.705,0.057-1.008C7.847,9.949,7.314,9.383,6.763,8.783z"/>
	<path fill="#FFFFFF" d="M10.928,7.489c0,0.379,0.003,0.757-0.001,1.136c-0.003,0.281-0.156,0.448-0.398,0.446
		C10.29,9.07,10.132,8.9,10.131,8.621c-0.004-0.764-0.004-1.528,0-2.292c0.002-0.283,0.156-0.433,0.413-0.427
		c0.249,0.006,0.38,0.149,0.383,0.432C10.93,6.718,10.928,7.104,10.928,7.489z"/>
	<path fill="#FFFFFF" d="M10.524,5.078c-0.225-0.004-0.375-0.167-0.371-0.404c0.004-0.232,0.167-0.396,0.389-0.391
		c0.218,0.006,0.379,0.18,0.375,0.408C10.912,4.922,10.75,5.081,10.524,5.078z"/>
	<path fill="#FFFFFF" d="M3.309,17.472c0.002,0.232-0.156,0.402-0.376,0.405c-0.216,0.003-0.386-0.17-0.39-0.395
		c-0.004-0.229,0.156-0.396,0.38-0.399C3.151,17.081,3.307,17.237,3.309,17.472z"/>
	<path fill="#FFFFFF" d="M18.284,8.425c0.314,0.003,0.512,0.312,0.361,0.588c-0.34,0.623-0.688,1.242-1.041,1.858
		c-0.065,0.113-0.154,0.218-0.251,0.306c-0.154,0.141-0.342,0.142-0.491,0.026c-0.153-0.12-0.206-0.323-0.112-0.501
		c0.125-0.234,0.263-0.461,0.396-0.691c0.26-0.448,0.521-0.895,0.779-1.344C18.007,8.526,18.108,8.422,18.284,8.425z"/>
</g>
</svg>
