<?xml version="1.0" encoding="utf-8"?>
<!-- Generator: Adobe Illustrator 17.0.0, SVG Export Plug-In . SVG Version: 6.00 Build 0)  -->
<!DOCTYPE svg PUBLIC "-//W3C//DTD SVG 1.1//EN" "http://www.w3.org/Graphics/SVG/1.1/DTD/svg11.dtd">
<svg version="1.1" id="Layer_1" xmlns="http://www.w3.org/2000/svg" xmlns:xlink="http://www.w3.org/1999/xlink" x="0px" y="0px"
	 width="22px" height="22px" viewBox="0 0 22 22" enable-background="new 0 0 22 22" xml:space="preserve">
<g>
	<path fill="#FFFFFF" d="M10.053,17.774c-0.081,0.041-0.143,0.07-0.202,0.104c-0.447,0.257-0.891,0.518-1.339,0.771
		c-0.517,0.292-1.047,0.153-1.344-0.361C5.105,14.72,3.044,11.151,0.986,7.581C0.687,7.062,0.83,6.541,1.351,6.24
		c2.223-1.286,4.448-2.57,6.673-3.853C8.462,2.135,8.84,2.187,9.222,2.529c0.051,0.046,0.134,0.072,0.205,0.076
		c1.859,0.101,3.719,0.196,5.578,0.294c0.565,0.03,1.13,0.054,1.694,0.099c0.411,0.033,0.759,0.309,0.803,0.714
		c0.032,0.292,0.19,0.347,0.405,0.417c0.849,0.278,1.695,0.565,2.542,0.85c0.623,0.21,0.853,0.671,0.643,1.296
		c-0.805,2.407-1.611,4.814-2.417,7.221c-0.027,0.08-0.05,0.16-0.078,0.25c0.129,0.045,0.246,0.075,0.354,0.125
		c0.404,0.187,0.616,0.518,0.685,0.949c0.158,0.989,0.318,1.978,0.473,2.967c0.125,0.797-0.265,1.343-1.059,1.475
		c-1.023,0.17-2.048,0.333-3.073,0.493c-0.302,0.047-0.58-0.031-0.838-0.198c-0.05-0.032-0.141-0.058-0.185-0.034
		c-0.311,0.167-0.636,0.139-0.965,0.099c-0.895-0.11-1.789-0.23-2.686-0.324c-0.854-0.089-1.264-0.534-1.246-1.4
		C10.06,17.867,10.056,17.834,10.053,17.774z M14.482,17.83c0-0.058,0.005-0.095-0.001-0.129c-0.106-0.664-0.21-1.328-0.322-1.992
		c-0.101-0.603,0.169-1.133,0.699-1.354c0.347-0.145,0.419-0.359,0.226-0.693c-2.042-3.538-4.085-7.076-6.129-10.613
		c-0.19-0.329-0.383-0.382-0.708-0.195c-2.2,1.269-4.399,2.539-6.599,3.809C1.325,6.85,1.273,7.047,1.46,7.374
		c0.317,0.552,0.636,1.103,0.954,1.655c1.717,2.974,3.435,5.948,5.152,8.922c0.215,0.371,0.396,0.42,0.77,0.205
		c0.558-0.321,1.119-0.638,1.67-0.97c0.082-0.049,0.159-0.165,0.172-0.26c0.098-0.709,0.176-1.42,0.265-2.13
		c0.082-0.659,0.665-1.11,1.325-1.032c0.206,0.025,0.412,0.05,0.618,0.076c0.455,0.056,0.909,0.113,1.364,0.167
		c0.167,0.02,0.267,0.105,0.261,0.279c-0.005,0.157-0.136,0.247-0.322,0.234c-0.028-0.002-0.057-0.008-0.085-0.011
		c-0.632-0.078-1.264-0.159-1.896-0.233c-0.373-0.043-0.7,0.192-0.746,0.553c-0.135,1.05-0.265,2.102-0.383,3.154
		c-0.049,0.435,0.18,0.725,0.612,0.78c1.036,0.132,2.074,0.253,3.113,0.368c0.132,0.015,0.271-0.028,0.422-0.046
		c-0.048-0.201-0.085-0.358-0.124-0.524c-0.205,0.106-0.408,0.118-0.536-0.064c-0.075-0.106-0.111-0.286-0.08-0.412
		C14.042,17.858,14.25,17.81,14.482,17.83z M9.601,3.127C9.687,3.28,9.759,3.386,9.81,3.502c0.072,0.165,0.186,0.223,0.366,0.229
		c0.615,0.021,1.23,0.059,1.845,0.091c1.151,0.06,2.303,0.116,3.453,0.182c0.522,0.03,0.829,0.381,0.819,0.909
		c-0.002,0.115-0.008,0.229-0.014,0.343c-0.082,1.537-0.165,3.074-0.248,4.612c-0.041,0.765-0.083,1.53-0.126,2.295
		c-0.013,0.234-0.187,0.364-0.367,0.278c-0.15-0.072-0.156-0.206-0.148-0.349c0.065-1.187,0.129-2.374,0.193-3.561
		c0.064-1.194,0.13-2.388,0.191-3.582c0.017-0.325-0.081-0.42-0.409-0.436c-0.172-0.008-0.343-0.015-0.515-0.024
		c-1.458-0.079-2.917-0.158-4.376-0.236c-0.062-0.003-0.124,0-0.223,0c0.055,0.099,0.095,0.172,0.136,0.243
		c1.641,2.844,3.283,5.688,4.924,8.533c0.205,0.356,0.474,0.69,0.371,1.157c0.231-0.035,0.428-0.072,0.626-0.093
		c0.139-0.015,0.191-0.072,0.197-0.217c0.019-0.515,0.052-1.03,0.08-1.545c0.143-2.674,0.285-5.348,0.428-8.022
		c0.039-0.718-0.039-0.795-0.76-0.831c-1.523-0.076-3.046-0.162-4.569-0.243C11.007,3.199,10.328,3.165,9.601,3.127z M17.511,4.542
		c-0.006,0.141-0.001,0.249-0.018,0.354c-0.027,0.164,0.034,0.239,0.194,0.288c0.505,0.156,1.005,0.329,1.507,0.498
		c0.561,0.189,0.747,0.56,0.56,1.119c-0.546,1.634-1.093,3.268-1.64,4.902c-0.075,0.224-0.149,0.448-0.226,0.671
		c-0.056,0.162-0.174,0.232-0.336,0.175c-0.152-0.053-0.198-0.175-0.151-0.33c0.013-0.041,0.026-0.082,0.039-0.123
		c0.339-1.017,0.679-2.035,1.019-3.052c0.269-0.807,0.54-1.613,0.808-2.421c0.089-0.268,0.044-0.355-0.227-0.447
		c-0.257-0.087-0.515-0.173-0.773-0.259c-0.263-0.088-0.525-0.176-0.812-0.273c-0.149,2.791-0.296,5.552-0.444,8.331
		c0.295-0.048,0.547-0.106,0.802-0.126c0.176-0.014,0.237-0.097,0.288-0.251c0.535-1.615,1.078-3.228,1.617-4.842
		c0.297-0.888,0.594-1.776,0.888-2.665c0.106-0.32,0.022-0.498-0.28-0.607c-0.181-0.065-0.365-0.126-0.548-0.187
		C19.036,5.05,18.291,4.802,17.511,4.542z M14.654,15.496c0.012,0.074,0.03,0.194,0.05,0.314c0.158,0.967,0.31,1.935,0.478,2.9
		c0.066,0.378,0.362,0.59,0.729,0.534c1.06-0.163,2.12-0.333,3.178-0.509c0.345-0.058,0.567-0.375,0.53-0.722
		c-0.014-0.135-0.039-0.269-0.06-0.403c-0.146-0.918-0.288-1.837-0.439-2.755c-0.063-0.385-0.388-0.631-0.753-0.574
		c-1.053,0.164-2.105,0.333-3.157,0.505C14.875,14.841,14.653,15.115,14.654,15.496z"/>
	<path fill="#FFFFFF" d="M10.022,11.325c0,0.444-0.005,0.887,0.002,1.331c0.004,0.21-0.049,0.385-0.24,0.49
		c-0.188,0.104-0.369,0.067-0.546-0.045c-0.779-0.495-1.558-0.99-2.34-1.479c-0.181-0.113-0.267-0.265-0.274-0.477
		C6.591,10.223,6.556,9.3,6.519,8.377C6.51,8.167,6.569,7.994,6.758,7.886c0.19-0.109,0.368-0.066,0.544,0.047
		c0.773,0.491,1.546,0.981,2.324,1.465C9.823,9.52,9.919,9.682,9.919,9.909c0,0.472,0,0.944,0,1.416
		C9.953,11.325,9.987,11.325,10.022,11.325z M7.051,8.384c-0.004,0.075-0.009,0.11-0.007,0.145c0.031,0.837,0.06,1.673,0.1,2.509
		c0.004,0.073,0.071,0.168,0.137,0.21c0.691,0.445,1.388,0.881,2.084,1.319c0.038,0.024,0.083,0.037,0.145,0.064
		c-0.031-0.725-0.101-1.427-0.076-2.125c0.018-0.488-0.15-0.76-0.57-0.989C8.251,9.182,7.676,8.779,7.051,8.384z"/>
	<path fill="#FFFFFF" d="M9.283,5.701c0.01,0.186,0.044,0.374,0.021,0.556C9.289,6.385,9.226,6.553,9.129,6.611
		C9.032,6.669,8.842,6.657,8.736,6.598C8.362,6.39,8.001,6.156,7.648,5.913c-0.087-0.06-0.165-0.191-0.173-0.296
		C7.438,5.176,7.418,4.732,7.412,4.289C7.409,3.979,7.702,3.817,7.97,3.976C8.344,4.2,8.715,4.429,9.072,4.678
		c0.091,0.063,0.159,0.203,0.177,0.317c0.036,0.232,0.031,0.47,0.043,0.706C9.289,5.701,9.286,5.701,9.283,5.701z M8.751,6.007
		c0-0.302,0.002-0.578-0.002-0.854c-0.001-0.038-0.023-0.09-0.053-0.109C8.46,4.889,8.22,4.74,7.972,4.584
		c0,0.303-0.003,0.578,0.003,0.853c0.001,0.041,0.035,0.097,0.071,0.12C8.276,5.709,8.51,5.854,8.751,6.007z"/>
	<path fill="#FFFFFF" d="M9.121,16.091c0,0.214,0.003,0.429-0.001,0.643c-0.006,0.314-0.284,0.478-0.553,0.316
		c-0.374-0.224-0.745-0.454-1.101-0.703c-0.09-0.063-0.162-0.207-0.172-0.32c-0.036-0.42-0.051-0.842-0.059-1.263
		c-0.006-0.335,0.287-0.499,0.576-0.325c0.361,0.218,0.721,0.437,1.065,0.68c0.095,0.067,0.167,0.212,0.188,0.331
		c0.037,0.209,0.027,0.427,0.037,0.641C9.108,16.091,9.115,16.091,9.121,16.091z M7.792,15.034c0,0.289-0.003,0.547,0.003,0.804
		c0.001,0.051,0.023,0.123,0.061,0.148c0.234,0.158,0.475,0.306,0.747,0.479c-0.015-0.32-0.025-0.591-0.045-0.861
		c-0.004-0.047-0.041-0.108-0.082-0.135C8.257,15.323,8.033,15.186,7.792,15.034z"/>
	<path fill="#FFFFFF" d="M11.735,17.874c-0.005,0.226-0.193,0.401-0.421,0.393c-0.218-0.008-0.392-0.186-0.392-0.403
		c0-0.221,0.193-0.412,0.412-0.409C11.557,17.459,11.74,17.65,11.735,17.874z"/>
	<path fill="#FFFFFF" d="M13.411,16.701c0.005,0.226-0.176,0.409-0.405,0.411c-0.219,0.001-0.4-0.168-0.409-0.385
		c-0.01-0.222,0.171-0.418,0.394-0.426C13.212,16.293,13.407,16.479,13.411,16.701z"/>
	<path fill="#FFFFFF" d="M12.057,15.189c-0.001,0.224-0.189,0.411-0.41,0.407c-0.224-0.004-0.4-0.191-0.395-0.419
		c0.005-0.22,0.178-0.391,0.396-0.394C11.874,14.781,12.058,14.963,12.057,15.189z"/>
	<path fill="#FFFFFF" d="M17.129,18.485c-0.988-0.003-1.741-0.769-1.727-1.755c0.014-0.934,0.79-1.694,1.732-1.695
		c0.952-0.001,1.738,0.774,1.736,1.711C18.868,17.741,18.121,18.488,17.129,18.485z M17.143,17.978
		c0.664-0.003,1.209-0.543,1.211-1.199c0.002-0.698-0.525-1.225-1.224-1.222c-0.687,0.002-1.207,0.523-1.213,1.214
		C15.911,17.431,16.47,17.981,17.143,17.978z"/>
	<path fill="#FFFFFF" d="M17.135,17.582c-0.468-0.001-0.806-0.343-0.807-0.815c-0.001-0.472,0.337-0.82,0.801-0.823
		c0.469-0.004,0.831,0.359,0.825,0.828C17.948,17.237,17.598,17.583,17.135,17.582z M17.436,16.767
		c0.002-0.163-0.135-0.305-0.295-0.306c-0.163-0.002-0.295,0.132-0.297,0.301c-0.001,0.171,0.124,0.303,0.291,0.305
		C17.297,17.067,17.434,16.932,17.436,16.767z"/>
</g>
</svg>
