<?xml version="1.0" encoding="utf-8"?>
<!-- Generator: Adobe Illustrator 17.0.0, SVG Export Plug-In . SVG Version: 6.00 Build 0)  -->
<!DOCTYPE svg PUBLIC "-//W3C//DTD SVG 1.1//EN" "http://www.w3.org/Graphics/SVG/1.1/DTD/svg11.dtd">
<svg version="1.1" id="Layer_1" xmlns="http://www.w3.org/2000/svg" xmlns:xlink="http://www.w3.org/1999/xlink" x="0px" y="0px"
	 width="22px" height="22px" viewBox="0 0 22 22" enable-background="new 0 0 22 22" xml:space="preserve">
<g>
	<path fill="#FFFFFF" d="M13.491,18.464c0,0.388,0.003,0.729-0.001,1.07c-0.008,0.747-0.545,1.293-1.295,1.294
		c-2.405,0.005-4.81,0.006-7.215-0.001c-0.786-0.002-1.372-0.593-1.373-1.382c-0.004-3.761-0.004-7.523-0.001-11.284
		c0.001-0.775,0.547-1.306,1.331-1.307c1.972-0.002,3.944-0.004,5.917,0.004c0.187,0.001,0.276-0.048,0.34-0.23
		c0.254-0.729,0.524-1.453,0.793-2.177c0.281-0.756,0.949-1.074,1.703-0.8c2.232,0.812,4.463,1.628,6.692,2.45
		c0.822,0.303,1.149,1.022,0.847,1.848c-1.28,3.503-2.562,7.005-3.847,10.507c-0.28,0.763-0.957,1.069-1.729,0.791
		c-0.625-0.225-1.249-0.455-1.873-0.683C13.697,18.534,13.613,18.506,13.491,18.464z M13.264,4.239
		c-0.331-0.006-0.524,0.142-0.645,0.473c-1.277,3.486-2.554,6.972-3.829,10.46c-0.185,0.505-0.029,0.828,0.481,1.015
		c2.176,0.798,4.352,1.595,6.528,2.391c0.534,0.195,0.789,0.078,0.983-0.451c1.26-3.439,2.52-6.879,3.78-10.318
		c0.215-0.588,0.08-0.889-0.505-1.103c-2.175-0.799-4.351-1.595-6.528-2.391C13.427,4.277,13.321,4.254,13.264,4.239z M10.847,7.562
		C10.791,7.551,10.76,7.54,10.728,7.54c-1.947-0.001-3.893-0.004-5.84,0.002C4.51,7.542,4.295,7.775,4.295,8.164
		c-0.002,3.752-0.002,7.504,0,11.256c0,0.451,0.264,0.72,0.711,0.72c2.388,0.004,4.775,0.003,7.163,0
		c0.411,0,0.629-0.22,0.637-0.633c0.007-0.349-0.013-0.7,0.008-1.048c0.013-0.209-0.074-0.286-0.255-0.35
		c-1.203-0.433-2.403-0.877-3.604-1.315c-0.475-0.173-0.769-0.507-0.893-0.993c-0.023-0.092-0.031-0.189-0.047-0.295
		c-0.092,0.025-0.163,0.047-0.234,0.064c-0.776,0.186-1.565-0.294-1.755-1.054c-0.089-0.358,0.021-0.674,0.226-0.937
		c0.596-0.767,1.213-1.517,1.834-2.265c0.157-0.189,0.364-0.173,0.542,0.011c0.199,0.205,0.388,0.42,0.601,0.654
		C9.777,10.484,10.31,9.028,10.847,7.562z M8.317,11.988c-0.525,0.682-1.032,1.317-1.51,1.974c-0.225,0.31-0.131,0.62,0.189,0.83
		c0.434,0.285,1.165,0.063,1.354-0.423c0.195-0.503,0.377-1.011,0.555-1.52c0.022-0.063,0.009-0.168-0.031-0.219
		C8.715,12.428,8.539,12.241,8.317,11.988z"/>
	<path fill="#FFFFFF" d="M11.101,1.912c-0.001,0.657-0.53,1.19-1.184,1.192C9.265,3.106,8.73,2.574,8.725,1.918
		C8.719,1.252,9.258,0.711,9.923,0.716C10.578,0.72,11.102,1.252,11.101,1.912z M9.91,2.415c0.281,0.002,0.511-0.224,0.513-0.502
		c0.002-0.278-0.225-0.506-0.507-0.508C9.634,1.403,9.404,1.627,9.402,1.906C9.4,2.18,9.633,2.413,9.91,2.415z"/>
	<path fill="#FFFFFF" d="M19.741,20.335c0.145,0.127,0.277,0.23,0.392,0.348c0.148,0.152,0.164,0.327,0.023,0.491
		c-0.131,0.153-0.334,0.146-0.506-0.017c-0.114-0.108-0.212-0.233-0.338-0.373c-0.138,0.134-0.248,0.242-0.359,0.348
		c-0.191,0.181-0.374,0.198-0.526,0.052c-0.148-0.143-0.137-0.346,0.04-0.524c0.105-0.106,0.223-0.198,0.405-0.358
		c-0.135-0.101-0.241-0.165-0.328-0.249c-0.245-0.236-0.282-0.435-0.125-0.596c0.167-0.172,0.351-0.141,0.596,0.107
		c0.086,0.088,0.16,0.188,0.28,0.33c0.118-0.146,0.188-0.249,0.275-0.338c0.231-0.237,0.413-0.268,0.578-0.109
		c0.16,0.154,0.128,0.363-0.09,0.583C19.97,20.117,19.879,20.202,19.741,20.335z"/>
	<path fill="#FFFFFF" d="M1.91,4.386C1.748,4.565,1.645,4.696,1.524,4.809C1.369,4.954,1.159,4.954,1.036,4.813
		C0.894,4.649,0.905,4.476,1.057,4.325c0.117-0.116,0.249-0.217,0.414-0.359C1.313,3.822,1.192,3.723,1.083,3.613
		C0.908,3.434,0.896,3.23,1.043,3.087c0.145-0.141,0.346-0.125,0.525,0.055c0.105,0.105,0.195,0.224,0.331,0.383
		c0.139-0.157,0.236-0.279,0.346-0.389C2.423,2.958,2.626,2.947,2.77,3.093c0.142,0.145,0.123,0.343-0.051,0.527
		C2.668,3.675,2.613,3.726,2.561,3.78C2.51,3.833,2.459,3.887,2.372,3.979c0.127,0.114,0.255,0.218,0.369,0.336
		C2.9,4.48,2.904,4.687,2.764,4.823c-0.14,0.135-0.343,0.126-0.508-0.038C2.145,4.674,2.05,4.548,1.91,4.386z"/>
	<path fill="#FFFFFF" d="M1.394,16.865c0.21,0.001,0.375,0.167,0.377,0.38c0.002,0.209-0.164,0.383-0.37,0.389
		c-0.213,0.006-0.398-0.18-0.393-0.394C1.012,17.034,1.188,16.864,1.394,16.865z"/>
	<path fill="#FFFFFF" d="M20.18,2.928c0.002,0.21-0.162,0.379-0.371,0.384c-0.222,0.006-0.393-0.165-0.389-0.389
		c0.004-0.213,0.167-0.372,0.381-0.37C20.013,2.554,20.179,2.718,20.18,2.928z"/>
	<path fill="#FFFFFF" d="M14.267,13.104c-0.095,0.255-0.183,0.494-0.274,0.732c-0.096,0.25-0.254,0.346-0.449,0.278
		c-0.208-0.072-0.279-0.257-0.19-0.513c0.085-0.243,0.176-0.483,0.276-0.754c-0.128-0.018-0.239-0.031-0.35-0.049
		c-0.697-0.117-1.217-0.746-1.204-1.443c0.006-0.32,0.106-0.605,0.366-0.784c0.628-0.433,1.27-0.847,1.914-1.256
		c0.238-0.151,0.496-0.27,0.751-0.392c0.231-0.111,0.424-0.053,0.509,0.185c0.319,0.89,0.635,1.782,0.923,2.682
		c0.176,0.55,0.057,1.045-0.444,1.388c-0.515,0.353-1.056,0.356-1.602,0.063C14.421,13.204,14.353,13.158,14.267,13.104z
		 M15.149,9.6c-0.786,0.504-1.498,0.955-2.201,1.42c-0.086,0.057-0.155,0.177-0.182,0.281c-0.068,0.264,0.115,0.587,0.394,0.741
		c0.301,0.166,0.587,0.127,0.827-0.061c0.093-0.073,0.282-0.125,0.37-0.078c0.103,0.054,0.148,0.224,0.208,0.349
		c0.039,0.082,0.037,0.195,0.093,0.256c0.231,0.25,0.527,0.307,0.845,0.216c0.3-0.087,0.492-0.349,0.415-0.616
		C15.685,11.298,15.426,10.495,15.149,9.6z"/>
	<path fill="#FFFFFF" d="M13.544,6.156c0.212-0.042,0.388-0.081,0.566-0.111c0.215-0.036,0.366,0.056,0.408,0.267
		c0.04,0.202-0.071,0.336-0.263,0.39c-0.167,0.048-0.338,0.08-0.548,0.128c0.096,0.203,0.187,0.393,0.275,0.584
		c0.117,0.253,0.075,0.443-0.115,0.538c-0.191,0.096-0.367,0.012-0.494-0.236c-0.068-0.133-0.135-0.266-0.203-0.399
		c-0.002-0.004-0.013-0.004-0.02-0.005c-0.013,0.009-0.031,0.015-0.038,0.028c-0.152,0.275-0.306,0.356-0.5,0.262
		c-0.188-0.092-0.23-0.26-0.129-0.54c0.206-0.569,0.412-1.139,0.622-1.707c0.1-0.271,0.28-0.374,0.489-0.288
		c0.192,0.078,0.243,0.262,0.148,0.532C13.682,5.772,13.62,5.943,13.544,6.156z"/>
	<path fill="#FFFFFF" d="M10.301,15.303c0.227,0.007,0.404,0.196,0.399,0.427c-0.005,0.229-0.194,0.413-0.419,0.406
		c-0.228-0.006-0.404-0.194-0.399-0.426C9.887,15.48,10.076,15.296,10.301,15.303z"/>
	<path fill="#FFFFFF" d="M16.468,17.817c0.007,0.22-0.175,0.414-0.398,0.423c-0.225,0.009-0.418-0.163-0.432-0.386
		c-0.015-0.232,0.174-0.434,0.408-0.437C16.27,17.414,16.461,17.595,16.468,17.817z"/>
	<path fill="#FFFFFF" d="M6.654,9.862C6.697,9.887,6.797,9.932,6.88,9.997c0.144,0.112,0.17,0.266,0.088,0.422
		c-0.083,0.158-0.228,0.216-0.401,0.159c-0.101-0.034-0.192-0.098-0.293-0.134c-0.199-0.071-0.398-0.153-0.604-0.194
		c-0.487-0.095-0.74-0.504-0.701-1.176c0.028-0.492,0.366-0.843,0.827-0.861c0.407-0.016,0.801,0.28,0.85,0.687
		C6.683,9.198,6.654,9.505,6.654,9.862z M5.991,9.239c0.002,0,0.005,0,0.007,0C5.995,9.173,6.012,9.094,5.982,9.045
		c-0.037-0.06-0.125-0.142-0.173-0.132C5.57,8.966,5.654,9.173,5.66,9.321c0.003,0.083,0.092,0.163,0.143,0.245
		c0.063-0.051,0.139-0.093,0.184-0.157C6.013,9.369,5.991,9.296,5.991,9.239z"/>
	<path fill="#FFFFFF" d="M12.378,19.195c-0.001,0.226-0.189,0.408-0.419,0.407c-0.231-0.001-0.415-0.185-0.413-0.412
		c0.002-0.227,0.188-0.408,0.418-0.407C12.193,18.784,12.38,18.97,12.378,19.195z"/>
</g>
</svg>
