<?xml version="1.0" encoding="utf-8"?>
<!-- Generator: Adobe Illustrator 25.3.0, SVG Export Plug-In . SVG Version: 6.00 Build 0)  -->
<svg version="1.1" id="Layer_1" xmlns="http://www.w3.org/2000/svg" xmlns:xlink="http://www.w3.org/1999/xlink" x="0px" y="0px"
	 viewBox="0 0 127.72 112.62" style="enable-background:new 0 0 127.72 112.62;" xml:space="preserve">
<style type="text/css">
	.st0{fill:#2C2E36;}
	.st1{fill:#7D7E80;}
	.st2{fill:#2FB62F;}
</style>
<rect x="-554" y="303.27" class="st0" width="1200" height="150.63"/>
<g>
	<path class="st1" d="M27.76,58.43c0-1.41,0-2.82,0-4.23c0.04-0.25,0.09-0.5,0.13-0.75c0.23-1.55,0.35-3.13,0.69-4.66
		c1.89-8.67,6.34-15.77,13.4-21.12c8.79-6.65,18.68-8.86,29.47-6.61c8.64,1.8,15.66,6.33,21.03,13.31c5.8,7.54,8.21,16.12,7.3,25.56
		c-0.74,7.65-3.71,14.41-8.81,20.18c-5.59,6.32-12.56,10.26-20.88,11.74c-1.36,0.24-2.74,0.38-4.11,0.56c-1.41,0-2.82,0-4.23,0
		c-0.18-0.04-0.36-0.1-0.54-0.12c-5.65-0.4-10.93-2.01-15.75-4.97c-9.35-5.73-15.11-13.99-17.13-24.8
		C28.07,61.18,27.94,59.8,27.76,58.43z M63.89,81.53c14.1-0.15,25.19-11.36,25.16-25.25c-0.03-14.1-11.34-25.18-25.22-25.16
		c-14.08,0.03-25.19,11.31-25.16,25.22C38.7,70.49,50.04,81.44,63.89,81.53z M30.52,53.54c0,1.89,0,3.72,0,5.53c1.88,0,3.7,0,5.51,0
		c0-1.87,0-3.69,0-5.53C34.18,53.54,32.38,53.54,30.52,53.54z M61,23.06c0,1.88,0,3.7,0,5.53c1.87,0,3.69,0,5.5,0
		c0-1.87,0-3.69,0-5.53C64.66,23.06,62.86,23.06,61,23.06z M61,84.03c0,1.9,0,3.72,0,5.52c1.87,0,3.69,0,5.49,0
		c0-1.87,0-3.68,0-5.52C64.65,84.03,62.85,84.03,61,84.03z M46.16,34.79c-1.3-1.3-2.6-2.58-3.8-3.78c-1.26,1.26-2.56,2.56-3.76,3.77
		c1.22,1.23,2.5,2.52,3.77,3.8C43.6,37.35,44.88,36.07,46.16,34.79z M85.46,31.01c-1.28,1.28-2.58,2.56-3.78,3.76
		c1.24,1.24,2.52,2.53,3.76,3.77c1.24-1.24,2.52-2.53,3.77-3.79C87.97,33.51,86.67,32.22,85.46,31.01z M42.26,81.68
		c1.3-1.29,2.6-2.57,3.85-3.81c-1.26-1.25-2.54-2.54-3.76-3.76c-1.26,1.27-2.56,2.57-3.82,3.84C39.74,79.16,41.02,80.44,42.26,81.68
		z M85.38,81.7c1.27-1.29,2.56-2.6,3.8-3.86c-1.22-1.23-2.5-2.52-3.7-3.72c-1.27,1.27-2.57,2.57-3.85,3.85
		C82.83,79.16,84.09,80.42,85.38,81.7z M91.5,59.08c1.85,0,3.67,0,5.49,0c0-1.87,0-3.69,0-5.53c-1.85,0-3.65,0-5.49,0
		C91.5,55.41,91.5,57.22,91.5,59.08z"/>
	<path class="st1" d="M84.41,56.29c-0.08,11.29-8.98,20.53-20.52,20.56c-11.29,0.03-20.53-8.96-20.56-20.49
		c-0.03-11.29,8.96-20.52,20.49-20.56C75.12,35.76,84.27,44.75,84.41,56.29z M64.65,64c0.05-0.02,0.1-0.04,0.14-0.06
		c0.07,0.06,0.14,0.11,0.21,0.17c2.43,2.45,7.56,1.67,9.14-1.6c1.39-2.87,1.19-5.76-0.76-8.22c-1.68-2.12-3.74-3.95-5.68-5.85
		c-1.2-1.18-2.51-2.25-3.82-3.41c-3.22,2.88-6.56,5.57-9.3,8.86c-1.88,2.25-2.25,4.9-1.43,7.69c1.05,3.61,5.86,5.25,8.92,3.07
		c0.3-0.22,0.59-0.45,1-0.77c-0.38,1.39-0.73,2.62-1.08,3.89c1.28,0,2.47,0,3.71,0C65.34,66.47,64.99,65.23,64.65,64z"/>
</g>
<g>
	<path class="st1" d="M363.52-152.63c8.84,0,17.69,0,26.59,0c0,11.46,0,22.82,0,34.33c-8.86,0-17.72,0-26.59,0
		C363.52-129.74,363.52-141.19,363.52-152.63z M380.3-141.07c-0.22,0.38-0.45,0.77-0.69,1.17c-2.64,4.36-4.61,8.99-5.94,13.89
		c-0.3,1.12,0.11,2,1.04,2.27c1,0.29,1.9-0.25,2.21-1.39c1.73-6.38,4.6-12.23,8.61-17.55c0.06-0.08,0.11-0.15,0.16-0.23
		c0.46-0.71,0.48-1.43-0.09-2.07c-0.58-0.64-1.34-0.79-2.08-0.34c-1.71,1.04-3.43,1-5.21,0.24c-0.32-0.14-0.67-0.2-1.01-0.3
		c-2.41-0.69-4.75-0.38-7.04,0.48c-0.94,0.35-1.35,1.18-1.08,2.01c0.29,0.9,1.11,1.32,2.13,1.09c0.19-0.04,0.37-0.11,0.55-0.17
		c1.81-0.63,3.62-0.64,5.44,0.01C378.26-141.62,379.24-141.38,380.3-141.07z"/>
	<path class="st1" d="M363.52-114.94c0.35-0.02,0.7-0.06,1.05-0.06c28.17,0,56.34,0,84.51,0c0.35,0,0.7,0,1.08,0
		c0,1.52,0.16,3.02-0.05,4.47c-0.19,1.34-1.45,2.22-2.87,2.35c-0.44,0.04-0.89,0.04-1.34,0.04c-26,0-51.99-0.01-77.99,0.03
		c-2.09,0-3.6-0.59-4.4-2.53C363.52-112.08,363.52-113.51,363.52-114.94z"/>
	<path class="st1" d="M363.52-160.28c0.8-1.88,2.24-2.52,4.31-2.51c26.09,0.04,52.18,0.03,78.27,0.02c1.04,0,2.13-0.05,2.88,0.74
		c0.54,0.56,1.1,1.3,1.21,2.02c0.19,1.3,0.05,2.65,0.05,4.1c-0.43,0-0.8,0-1.17,0c-28.17,0-56.34,0-84.51,0
		c-0.35,0-0.7-0.05-1.04-0.08C363.52-157.42,363.52-158.85,363.52-160.28z"/>
	<path class="st1" d="M461.77-127.26c-0.83,1.92-2.32,2.65-4.42,2.48c-1.17-0.1-2.35-0.02-3.59-0.02c0-7.11,0-14.15,0-21.26
		c0.38-0.04,0.77-0.08,1.27-0.13c0-0.36,0-0.7,0-1.03c0-7.55,0-15.11,0.01-22.66c0-0.51-0.02-0.89-0.62-1.19
		c-2.19-1.1-3.17-3.29-2.61-5.56c0.51-2.06,2.44-3.58,4.65-3.67c2.36-0.1,4.33,1.25,5.1,3.47c0.06,0.17,0.14,0.33,0.22,0.5
		c0,0.62,0,1.24,0,1.87c-0.54,1.42-1.25,2.73-2.75,3.39c-0.54,0.24-0.64,0.56-0.64,1.08c0.02,7.63,0.01,15.27,0.02,22.9
		c0,0.3,0,0.6,0,0.94c1.77,0.11,2.72,1.11,3.37,2.48C461.77-138.2,461.77-132.73,461.77-127.26z"/>
	<path class="st1" d="M420.23-152.58c0,11.43,0,22.79,0,34.21c-8.88,0-17.72,0-26.62,0c0-11.4,0-22.78,0-34.21
		C402.48-152.58,411.3-152.58,420.23-152.58z M409.64-141.07c-0.2,0.33-0.38,0.65-0.57,0.96c-2.72,4.46-4.75,9.2-6.09,14.22
		c-0.27,1.02,0.19,1.91,1.11,2.16c0.94,0.25,1.8-0.23,2.13-1.25c0.28-0.86,0.5-1.73,0.78-2.59c1.77-5.47,4.41-10.51,7.89-15.13
		c0.64-0.85,0.65-1.68,0.05-2.29c-0.68-0.69-1.46-0.71-2.26-0.24c-1.48,0.87-2.99,0.95-4.58,0.29c-0.5-0.21-1.03-0.33-1.55-0.47
		c-2.38-0.66-4.69-0.33-6.94,0.52c-0.85,0.32-1.29,1.08-1.11,1.85c0.19,0.83,0.76,1.29,1.63,1.33c0.34,0.01,0.69-0.11,1.02-0.23
		c1.88-0.65,3.74-0.66,5.62,0.03C407.63-141.59,408.57-141.38,409.64-141.07z"/>
	<path class="st1" d="M423.7-118.37c0-11.43,0-22.79,0-34.2c8.86,0,17.67,0,26.53,0c0,11.41,0,22.77,0,34.2
		C441.4-118.37,432.59-118.37,423.7-118.37z M438.52-141.1c-0.14,0.26-0.29,0.52-0.43,0.79c-1.11,2.09-2.38,4.13-3.3,6.3
		c-1.11,2.6-1.99,5.3-2.87,7.99c-0.48,1.46,0.61,2.65,1.99,2.28c0.82-0.22,1.12-0.85,1.31-1.58c1.71-6.29,4.56-12.05,8.49-17.3
		c0.72-0.96,0.75-1.69,0.14-2.37c-0.6-0.67-1.35-0.76-2.43-0.17c-1.38,0.75-2.77,0.86-4.23,0.29c-0.36-0.14-0.73-0.24-1.09-0.36
		c-2.54-0.86-5.03-0.61-7.5,0.28c-0.68,0.24-1.14,0.68-1.21,1.42c-0.13,1.31,1.05,2.15,2.45,1.64c2.09-0.75,4.11-0.71,6.17,0.08
		C436.79-141.5,437.64-141.34,438.52-141.1z"/>
</g>
<g>
	<path class="st1" d="M150.07-219.44c0,0.43,0,0.85,0,1.28c-0.73,1.82-2.04,3.16-3.83,4.06c-0.88,0.44-1.76,0.42-2.52-0.32
		c-0.33-0.33-0.73-0.6-1.22-1c0,0.45,0,0.72,0,1c0,10.08,0,20.16,0,30.24c0,2.3-1.48,3.84-3.81,3.86c-4.64,0.04-9.27,0.03-13.91,0
		c-1.64-0.01-2.91-0.87-3.35-2.25c-0.18-0.55-0.22-1.17-0.22-1.75c-0.01-7.02-0.01-14.04-0.01-21.06c0-0.27,0-0.55,0-0.83
		c-5.71,0-11.32,0-16.98,0c0,0.32,0,0.58,0,0.84c0,3.18,0,6.36,0,9.53c0,3.87,0.01,7.73,0,11.6c-0.01,2.39-1.51,3.92-3.91,3.93
		c-4.31,0.02-8.63,0.02-12.94,0c-1.63-0.01-2.9-0.67-3.55-2.13c-0.27-0.61-0.35-1.34-0.35-2.01c-0.02-10.15-0.01-20.3-0.01-30.45
		c0-0.27,0-0.53,0-0.97c-0.87,0.75-1.56,1.39-2.32,1.96c-0.48,0.36-1.02,0.71-1.59,0.87c-1.74,0.47-3.05-0.29-4.21-1.47
		c-1.97-2-1.91-3.92,0.22-5.78c11.06-9.69,22.11-19.39,33.17-29.09c2.22-1.94,4.33-1.98,6.59-0.09
		c10.89,9.12,21.79,18.24,32.69,27.35C148.9-221.36,149.72-220.58,150.07-219.44z"/>
</g>
<g>
	<path class="st2" d="M-467.16,319.74c1.5,0,3,0.02,4.51-0.01c0.6-0.01,0.82,0.2,0.8,0.8c-0.03,1.38,0.02,2.76-0.02,4.14
		c-0.02,0.66,0.21,0.9,0.84,1.02c3.96,0.77,7.76,2,11.21,4.14c8.34,5.16,13.84,12.38,15.94,22.04c2.44,11.19-0.11,21.19-7.43,29.92
		c-5.21,6.21-11.94,9.98-19.92,11.36c-10.64,1.84-20.16-0.76-28.41-7.71c-6.23-5.24-10.03-11.98-11.41-19.99
		c-1.83-10.64,0.77-20.16,7.72-28.41c5.22-6.2,11.94-9.93,19.91-11.38c0.71-0.13,0.9-0.42,0.88-1.09c-0.04-1.35,0.01-2.7-0.02-4.05
		c-0.01-0.61,0.21-0.81,0.81-0.8C-470.23,319.76-468.69,319.74-467.16,319.74z M-440.57,359.39c0.08-14.53-12.01-26.81-26.88-26.74
		c-14.55,0.07-26.61,12.13-26.61,26.75c0.01,14.7,12.16,26.68,26.62,26.75C-452.68,386.21-440.49,374.02-440.57,359.39z"/>
	<path class="st2" d="M-448.69,376.75c-1.23-1.14-2.43-2.23-3.61-3.34c-4.12-3.85-8.24-7.7-12.37-11.54
		c-0.51-0.47-0.74-0.96-0.74-1.67c0.02-8.46,0.02-16.92,0-25.37c0-0.77,0.19-1.07,1-0.91c10.15,2.02,17.26,7.77,20.59,17.59
		c3.07,9.04,1.31,17.44-4.57,24.97C-448.44,376.56-448.52,376.61-448.69,376.75z"/>
</g>
<g>
	<path class="st1" d="M361.49,83.61c0.32-1.68,0.95-3.21,2.08-4.53c1.03-1.21,2.28-2.08,3.79-2.59c4.58-1.52,9.16-3.04,13.74-4.59
		c0.47-0.16,0.74-0.06,1.07,0.27c2.95,2.94,6.44,4.93,10.53,5.74c5.97,1.18,11.34-0.27,16.16-3.91c0.78-0.59,1.46-1.31,2.22-1.92
		c0.2-0.16,0.59-0.26,0.82-0.18c4.67,1.53,9.35,3.06,14,4.66c3.41,1.17,5.7,4.47,5.71,8.07c0.01,2.78,0,5.56,0,8.44
		c-23.4,0-46.75,0-70.11,0C361.49,89.91,361.49,86.76,361.49,83.61z"/>
	<path class="st1" d="M398.18,22.96c1,0.18,2.02,0.31,3.01,0.56c5.16,1.32,8.97,4.31,11.27,9.16c0.06,0.12,0.1,0.25,0.18,0.45
		c-10.74,0-21.44,0-32.35,0c0.71-1.18,1.28-2.32,2.03-3.32c3.01-4.03,7.1-6.16,12.05-6.72c0.18-0.02,0.35-0.08,0.52-0.13
		C395.99,22.96,397.09,22.96,398.18,22.96z"/>
	<path class="st1" d="M396.53,58.01c-5.73,0-11.45,0-17.18,0c-2.52,0-4.49-1.04-5.57-3.36c-0.4-0.86-0.57-1.88-0.6-2.83
		c-0.08-2.69-0.04-5.38-0.02-8.07c0.03-3.7,2.5-6.16,6.21-6.17c11.45-0.01,22.9-0.01,34.35,0c3.04,0,5.2,1.6,5.98,4.43
		c0.16,0.56,0.2,1.17,0.21,1.76c0.02,2.69,0.02,5.38,0.01,8.07c-0.02,3-1.62,5.18-4.39,5.95c-0.63,0.17-1.3,0.22-1.96,0.22
		C407.89,58.02,402.21,58.01,396.53,58.01z M384.83,43.45c-1.98,0-3.88,0-5.77,0c0,1.96,0,3.86,0,5.75c1.95,0,3.85,0,5.77,0
		C384.83,47.26,384.83,45.38,384.83,43.45z"/>
	<path class="st1" d="M410.33,62.44c-1.63,5.52-7.87,10.07-13.78,10.07c-5.91,0-12.14-4.53-13.79-10.07
		C391.94,62.44,401.12,62.44,410.33,62.44z"/>
</g>
<text transform="matrix(1 0 0 1 -507.1017 430.3978)" style="fill:#FFFFFF; font-family:'Poppins-Regular'; font-size:27px;">Inplay</text>
<text transform="matrix(1 0 0 1 -283.0981 430.3978)" class="st1" style="font-family:'Poppins-Regular'; font-size:27px;">LIve Casino</text>
<text transform="matrix(1 0 0 1 272.831 430.3978)" class="st1" style="font-family:'Poppins-Regular'; font-size:27px;">Slots</text>
<text transform="matrix(1 0 0 1 484.4339 430.3978)" class="st1" style="font-family:'Poppins-Regular'; font-size:27px;">Virtuals</text>
<text transform="matrix(1 0 0 1 3.7352 430.3978)" class="st1" style="font-family:'Poppins-Regular'; font-size:27px;">Home</text>
</svg>
