<?xml version="1.0" encoding="utf-8"?>
<!-- Generator: Adobe Illustrator 17.0.0, SVG Export Plug-In . SVG Version: 6.00 Build 0)  -->
<!DOCTYPE svg PUBLIC "-//W3C//DTD SVG 1.1//EN" "http://www.w3.org/Graphics/SVG/1.1/DTD/svg11.dtd">
<svg version="1.1" id="Layer_1" xmlns="http://www.w3.org/2000/svg" xmlns:xlink="http://www.w3.org/1999/xlink" x="0px" y="0px"
	 width="22px" height="22px" viewBox="0 0 22 22" enable-background="new 0 0 22 22" xml:space="preserve">
<g>
	<path fill="#FFFFFF" d="M14.658,1.195c0.136,0.05,0.28,0.085,0.406,0.153c0.493,0.264,0.731,0.688,0.732,1.242
		c0.003,1.586,0.001,3.172,0.001,4.759c0,1.129,0.001,2.259,0,3.388c-0.001,0.901-0.559,1.459-1.461,1.461
		c-0.032,0-0.064,0.004-0.095-0.001c-0.523-0.078-0.982,0.12-1.434,0.339c-0.06,0.029-0.114,0.079-0.162,0.128
		c-0.99,1.011-1.978,2.024-2.967,3.035c-0.428,0.437-0.934,0.573-1.51,0.349c-0.155-0.06-0.308-0.157-0.427-0.273
		c-1.961-1.906-3.918-3.816-5.873-5.727C1.213,9.407,1.209,8.63,1.853,7.971C2.612,7.195,3.371,6.42,4.125,5.64
		c0.052-0.053,0.093-0.156,0.081-0.225C4.086,4.732,4.39,4.147,5.032,3.873C5.999,3.46,6.968,3.052,7.94,2.651
		c0.175-0.072,0.274-0.144,0.31-0.359c0.089-0.542,0.436-0.884,0.957-1.05c0.041-0.013,0.08-0.03,0.12-0.046
		C11.104,1.195,12.881,1.195,14.658,1.195z M15.226,6.696c0-1.352,0-2.703,0-4.055c0-0.564-0.309-0.874-0.868-0.874
		c-1.567,0-3.135,0-4.703,0c-0.563,0-0.865,0.304-0.865,0.872c0,2.703,0,5.407,0,8.11c0,0.576,0.303,0.876,0.882,0.876
		c1.555,0.001,3.11,0,4.664,0c0.585,0,0.889-0.306,0.889-0.894C15.227,9.387,15.226,8.041,15.226,6.696z M4.474,6.099
		C3.685,6.911,2.908,7.693,2.153,8.497c-0.321,0.342-0.278,0.761,0.069,1.1C4.168,11.499,6.115,13.4,8.064,15.3
		c0.405,0.395,0.832,0.384,1.23-0.023c0.59-0.603,1.177-1.209,1.77-1.809c0.091-0.093,0.205-0.164,0.308-0.245
		c-0.018-0.02-0.035-0.04-0.053-0.059c-0.063,0.024-0.128,0.046-0.19,0.073c-0.584,0.246-1.167,0.493-1.75,0.739
		c-0.832,0.351-1.564,0.056-1.913-0.773C6.93,11.93,6.395,10.657,5.859,9.385C5.402,8.3,4.944,7.214,4.474,6.099z M12.034,12.239
		c-0.002-0.014-0.004-0.028-0.006-0.042c-0.062,0-0.123,0-0.185,0c-0.717,0-1.434-0.018-2.15,0.005
		c-0.877,0.028-1.492-0.633-1.483-1.485C8.234,8.281,8.218,5.846,8.218,3.41c0-0.074,0-0.149,0-0.226
		C8.184,3.182,8.163,3.175,8.147,3.181c-0.998,0.42-1.999,0.833-2.991,1.266c-0.335,0.146-0.482,0.537-0.37,0.885
		c0.066,0.204,0.152,0.402,0.236,0.601c0.99,2.352,1.981,4.704,2.972,7.055c0.223,0.528,0.621,0.689,1.153,0.467
		c0.152-0.063,0.304-0.128,0.455-0.192C10.413,12.922,11.223,12.58,12.034,12.239z"/>
	<path fill="#FFFFFF" d="M15.675,14.449c0.383-0.576,0.888-0.967,1.545-1.154c1.244-0.354,2.563,0.233,3.134,1.398
		c0.569,1.159,0.225,2.572-0.823,3.329c-0.166,0.12-0.246,0.242-0.28,0.45c-0.193,1.18-1.121,2.04-2.347,2.206
		c-1.092,0.148-2.225-0.495-2.712-1.537c-0.024-0.051-0.049-0.102-0.079-0.163c-0.75,0.081-1.434-0.09-2.031-0.564
		c-0.457-0.363-0.761-0.829-0.915-1.39c-0.312-1.138,0.164-2.344,1.168-2.973C13.268,13.466,14.626,13.445,15.675,14.449z
		 M16.617,18.787c0.423,0.002,0.776-0.347,0.778-0.769c0.002-0.421-0.348-0.775-0.771-0.777c-0.422-0.002-0.777,0.349-0.779,0.77
		C15.843,18.432,16.194,18.785,16.617,18.787z M12.981,16.315c-0.004,0.538,0.528,0.918,1.028,0.73
		c0.065-0.024,0.13-0.077,0.168-0.135c0.105-0.158,0.201-0.322,0.289-0.49c0.032-0.062,0.05-0.144,0.043-0.213
		c-0.043-0.392-0.414-0.683-0.823-0.654C13.295,15.58,12.984,15.916,12.981,16.315z M15.366,19.687
		c0.673,0.574,1.889,0.57,2.53-0.021c-0.143-0.134-0.291-0.263-0.425-0.404c-0.082-0.086-0.145-0.105-0.258-0.047
		c-0.365,0.186-0.742,0.191-1.121,0.033c-0.068-0.029-0.136-0.06-0.199-0.088C15.713,19.34,15.544,19.509,15.366,19.687z
		 M16.685,14.207c0.153,0.152,0.303,0.307,0.463,0.451c0.034,0.031,0.118,0.044,0.158,0.024c0.429-0.211,0.853-0.212,1.281-0.001
		c0.038,0.019,0.108,0.027,0.133,0.006c0.176-0.149,0.345-0.307,0.52-0.466C18.505,13.618,17.307,13.625,16.685,14.207z
		 M19.65,14.64c-0.186,0.181-0.366,0.355-0.511,0.497c0.054,0.259,0.147,0.504,0.144,0.747c-0.003,0.243-0.101,0.485-0.152,0.707
		c0.162,0.17,0.331,0.347,0.5,0.523C20.194,16.463,20.196,15.331,19.65,14.64z M18.277,16.744c-0.145,0.151-0.285,0.305-0.436,0.448
		c-0.076,0.072-0.07,0.126-0.029,0.213c0.054,0.113,0.093,0.235,0.123,0.357c0.086,0.351-0.015,0.674-0.167,0.968
		c0.185,0.187,0.358,0.362,0.53,0.536C18.864,18.594,18.864,17.399,18.277,16.744z M15.479,18.731
		c-0.279-0.482-0.268-0.964-0.011-1.421c-0.183-0.188-0.354-0.364-0.525-0.539c-0.567,0.586-0.568,1.854-0.002,2.492
		C15.116,19.091,15.291,18.918,15.479,18.731z M17.326,16.865c0.183-0.181,0.362-0.358,0.541-0.535
		c-0.668-0.561-1.871-0.559-2.48-0.004c0.174,0.179,0.349,0.359,0.526,0.541C16.384,16.603,16.861,16.604,17.326,16.865z
		 M12.476,14.665c0.164,0.156,0.316,0.308,0.477,0.451c0.032,0.029,0.108,0.047,0.143,0.029c0.467-0.241,0.926-0.215,1.373,0.033
		c0.181-0.181,0.355-0.354,0.529-0.527C14.421,14.079,13.178,14.072,12.476,14.665z M12.101,15.053
		c-0.592,0.598-0.591,1.966-0.025,2.508c0.175-0.173,0.35-0.345,0.525-0.518c-0.256-0.611-0.257-0.747-0.025-1.379
		c0.014-0.039-0.003-0.11-0.032-0.142C12.4,15.361,12.249,15.208,12.101,15.053z M12.489,18.007
		c0.447,0.322,0.928,0.459,1.464,0.407c0-0.26,0-0.504,0-0.707c-0.322-0.068-0.631-0.132-0.957-0.201
		C12.853,17.648,12.679,17.82,12.489,18.007z M17.328,15.432c0.505,0.14,0.928,0.414,1.287,0.79
		c0.213-0.322,0.084-0.796-0.257-1.009C18.011,14.997,17.577,15.083,17.328,15.432z M16.252,14.556
		c-0.072,0.179-0.183,0.318-0.164,0.437c0.05,0.31,0.156,0.366,0.471,0.346c0.032-0.002,0.064,0.001,0.095-0.005
		c0.127-0.027,0.176-0.173,0.087-0.268C16.594,14.908,16.443,14.755,16.252,14.556z M14.898,15.618
		c0.035,0.068,0.077,0.15,0.118,0.23c0.225-0.122,0.444-0.241,0.678-0.368c-0.084-0.142-0.166-0.28-0.245-0.413
		C15.26,15.257,15.083,15.433,14.898,15.618z"/>
	<path fill="#FFFFFF" d="M12.004,5.208c0.1-0.094,0.185-0.179,0.276-0.257c0.509-0.434,1.276-0.401,1.745,0.072
		c0.472,0.476,0.52,1.256,0.062,1.742c-0.608,0.646-1.248,1.264-1.878,1.89c-0.125,0.124-0.283,0.127-0.408,0.003
		c-0.638-0.635-1.289-1.26-1.9-1.92C9.456,6.255,9.524,5.471,9.996,5.012c0.48-0.468,1.247-0.491,1.747-0.051
		C11.828,5.035,11.908,5.116,12.004,5.208z M12.007,8.036C12.558,7.49,13.12,6.95,13.66,6.39c0.264-0.273,0.221-0.718-0.053-0.978
		c-0.266-0.253-0.69-0.264-0.969-0.016c-0.137,0.122-0.26,0.259-0.393,0.386c-0.17,0.162-0.311,0.162-0.479,0
		c-0.132-0.127-0.256-0.265-0.393-0.387c-0.284-0.253-0.717-0.237-0.983,0.029c-0.262,0.262-0.298,0.697-0.039,0.965
		C10.893,6.949,11.455,7.489,12.007,8.036z"/>
	<path fill="#FFFFFF" d="M14.316,10.1c0,0.108,0.004,0.215-0.001,0.323c-0.009,0.176-0.126,0.293-0.285,0.292
		c-0.151-0.001-0.275-0.112-0.281-0.276c-0.009-0.228-0.009-0.456,0-0.683c0.006-0.172,0.139-0.291,0.294-0.284
		c0.151,0.006,0.259,0.12,0.272,0.287c0.001,0.013,0.001,0.025,0.001,0.038C14.316,9.897,14.316,9.998,14.316,10.1z"/>
	<path fill="#FFFFFF" d="M9.701,3.282c0-0.12-0.009-0.241,0.002-0.36C9.717,2.778,9.808,2.694,9.951,2.68
		c0.152-0.014,0.281,0.056,0.294,0.205c0.023,0.269,0.022,0.542,0.004,0.812c-0.01,0.15-0.137,0.226-0.287,0.216
		C9.81,3.904,9.713,3.816,9.702,3.661C9.693,3.536,9.7,3.409,9.7,3.282C9.701,3.282,9.701,3.282,9.701,3.282z"/>
	<path fill="#FFFFFF" d="M3.276,8.693c0.087,0.031,0.152,0.035,0.19,0.07c0.19,0.175,0.382,0.35,0.555,0.541
		c0.1,0.111,0.083,0.251-0.023,0.36C3.892,9.773,3.754,9.796,3.64,9.697C3.445,9.527,3.257,9.348,3.09,9.152
		c-0.05-0.059-0.052-0.2-0.019-0.279C3.104,8.795,3.21,8.748,3.276,8.693z"/>
	<path fill="#FFFFFF" d="M6.128,5.067c0.042,0.036,0.151,0.09,0.197,0.176c0.106,0.2,0.187,0.414,0.267,0.626
		c0.059,0.155-0.008,0.297-0.151,0.359C6.298,6.29,6.15,6.24,6.077,6.086C5.978,5.875,5.886,5.66,5.806,5.441
		C5.738,5.254,5.869,5.074,6.128,5.067z"/>
</g>
</svg>
