<?xml version="1.0" encoding="utf-8"?>
<!-- Generator: Adobe Illustrator 17.0.0, SVG Export Plug-In . SVG Version: 6.00 Build 0)  -->
<!DOCTYPE svg PUBLIC "-//W3C//DTD SVG 1.1//EN" "http://www.w3.org/Graphics/SVG/1.1/DTD/svg11.dtd">
<svg version="1.1" id="Layer_1" xmlns="http://www.w3.org/2000/svg" xmlns:xlink="http://www.w3.org/1999/xlink" x="0px" y="0px"
	 width="22px" height="22px" viewBox="0 0 22 22" enable-background="new 0 0 22 22" xml:space="preserve">
<g>
	<path fill="#7D7E80" d="M0.534,6.951C0.545,6.935,0.562,6.92,0.566,6.902c0.159-0.704,0.607-1.116,1.293-1.297
		c1.164-0.308,2.327-0.621,3.49-0.933c1.367-0.366,2.733-0.735,4.1-1.099c0.924-0.246,1.796,0.249,2.045,1.175
		c1.123,4.179,2.242,8.358,3.359,12.538c0.254,0.95-0.229,1.801-1.175,2.058c-2.567,0.696-5.136,1.385-7.707,2.067
		c-0.9,0.239-1.758-0.272-2.004-1.184c-0.78-2.89-1.553-5.782-2.327-8.673C1.28,10.213,0.925,8.871,0.567,7.531
		C0.562,7.513,0.545,7.498,0.534,7.482C0.534,7.305,0.534,7.128,0.534,6.951z M6.987,9.073c-0.272,0.021-0.41,0.134-0.478,0.335
		c-0.386,1.147-0.772,2.294-1.16,3.441c-0.069,0.205-0.022,0.374,0.138,0.515c0.91,0.801,1.819,1.604,2.732,2.402
		c0.276,0.241,0.612,0.149,0.731-0.2c0.39-1.146,0.773-2.294,1.161-3.44c0.07-0.206,0.022-0.374-0.138-0.515
		c-0.91-0.801-1.819-1.603-2.733-2.4C7.157,9.139,7.043,9.103,6.987,9.073z"/>
	<path fill="#7D7E80" d="M12.188,0.53c0.507,0.095,1.013,0.195,1.521,0.285C15.854,1.197,18,1.567,20.142,1.959
		c0.906,0.166,1.456,0.981,1.297,1.891c-0.456,2.622-0.921,5.242-1.383,7.863c-0.289,1.642-0.579,3.285-0.87,4.926
		c-0.168,0.948-0.91,1.507-1.865,1.391c-0.384-0.047-0.764-0.13-1.113-0.19c-0.382-1.917-0.971-3.758-1.449-5.626
		c-0.046-0.179-0.024-0.271,0.137-0.38c0.916-0.618,1.74-1.336,2.339-2.28c0.258-0.406,0.45-0.839,0.523-1.319
		c0.097-0.638-0.209-1.243-0.773-1.535c-0.571-0.296-1.25-0.191-1.716,0.266c-0.038,0.037-0.063,0.087-0.101,0.14
		c-0.558-0.951-0.94-1.125-2.021-0.931c-0.129-0.482-0.271-0.963-0.386-1.45c-0.175-0.738-0.496-1.381-1.112-1.851
		c-0.404-0.308-0.857-0.495-1.357-0.567c0-0.889,0.485-1.477,1.155-1.698c0.083-0.027,0.166-0.053,0.25-0.079
		C11.861,0.53,12.025,0.53,12.188,0.53z"/>
</g>
</svg>
